<svg xmlns="http://www.w3.org/2000/svg" viewBox="0 0 2661.45 1407.11"><defs><style>.cls-1{fill:#cce7ff;}.cls-2{fill:#2e3552;}.cls-3{fill:#ffb27d;}.cls-4{fill:#2c3a64;}.cls-5{fill:#0b81d8;}.cls-6{fill:#0a6299;}.cls-7{fill:#ffb507;}.cls-8{fill:#e5770a;}.cls-9{fill:#ea9c68;}.cls-10{fill:#fff;}.cls-11{fill:#0967ad;}.cls-12{fill:#ed7d2b;}.cls-13{fill:#f99f46;}.cls-14{fill:#0868bf;}.cls-15{fill:#085b99;}.cls-16{fill:#ed985f;}.cls-17{fill:#e57607;}.cls-18{fill:#ffa008;}.cls-19{fill:#e0812b;}.cls-20{fill:#ea8826;}.cls-21{fill:#d35c2b;}.cls-22{fill:#166291;}.cls-23{fill:#1d80b2;}.cls-24{fill:#ed975d;}.cls-25{fill:#2b478b;}.cls-26{fill:#35488b;}.cls-27{fill:#086bd1;}.cls-28{fill:#1266b2;}.cls-29{fill:#e8945b;}.cls-30{fill:#0861b2;}</style></defs><g id="Layer_2" data-name="Layer 2"><g id="_Layer_" data-name="&lt;Layer&gt;"><path class="cls-1" d="M155.41,1403.12s-311.36-334.3-52.66-696.22C332.29,385.77,599.91,407.72,796.26,538c83.62,55.5,324.73,6.84,529.94-319.92C1606.06-227.49,2576.12,42.77,2399.25,728.35c-85.59,331.78,260.5,343.84,84.15,675.47Z"/><rect class="cls-2" x="47.23" y="1400.17" width="2614.22" height="6.93" rx="2.96"/><path class="cls-3" d="M2359.8,909.16l-41.15,21-8.25-28.55s5.25-9.88,7.62-26.06a108.94,108.94,0,0,0,.85-23.5l33.52,17.17a62.89,62.89,0,0,0-1.33,7.67,55.68,55.68,0,0,0,.58,17.94C2352.85,900.3,2355.28,905.49,2359.8,909.16Z"/><path class="cls-3" d="M2286.34,915s-38-49.17-56.45-64.43c0,0-25.28-62.33-27.34-66.44s-15.17,3.43-15.17,3.43,9.28,60.59,19.07,78.55,40.16,78.25,61.59,80.48S2286.34,915,2286.34,915Z"/><path class="cls-4" d="M2252.56,1363.28s-.85,9.37,6.08,16.2a23.8,23.8,0,0,1,7.39,15.08,5.58,5.58,0,0,1-8.54,5.11l-40.77-25.8a6.94,6.94,0,0,1-1.76-10.14c2.22-2.83,4.76-6.14,6.61-8.75,4-5.7,12.92-6.71,12.92-6.71Z"/><path class="cls-4" d="M2366.24,1329.47s-4.23,8.4-.29,17.3a23.75,23.75,0,0,1,1.34,16.73,5.58,5.58,0,0,1-9.82,1.62L2329,1326.17a6.93,6.93,0,0,1,2.09-10.07c3.1-1.82,6.68-4,9.35-5.73,5.84-3.82,14.49-1.5,14.49-1.5Z"/><path class="cls-5" d="M2436.71,1245c-6.06,22.48-67.44,95.1-67.44,95.1s-28.53-19-28.53-33.72c0,0,31.13-64.85,31.13-72.63,0-1.84-4.21-9.26-10.59-19.6-11-17.84-28.45-44.41-41.93-66.31-11.58-18.81-20.23-34.14-19.32-37.49,2.6-9.51,90.54-26.15,90.54-26.15S2442.75,1222.51,2436.71,1245Z"/><path class="cls-6" d="M2361.28,1214.15c-11-17.84-28.45-44.41-41.93-66.31,1.64-27.42,9.39-51.41,24.09-51.41,36.73,0,31.16,2.79,31.16,2.79S2384.1,1180.34,2361.28,1214.15Z"/><path class="cls-5" d="M2333.89,1102s8,150.81-4.61,169.73-68.2,99-68.2,99-43.48-11.12-41.18-24.48c0,0,46.77-90.25,46.72-102.49s-22.23-122.89,1.14-141.81S2333.89,1102,2333.89,1102Z"/><path class="cls-3" d="M2362.73,919.29s54.78-48.87,58.13-55.59S2439.74,797,2439.74,797l13.06,1.59s-2.49,72-8,86-70,73.65-70,73.65Z"/><path class="cls-7" d="M2394,945.41c.23-3.42,20.83-17.34,20.83-17.34,4.33-26-12.22-44.75-12.22-44.75L2377.79,901c-4.79.29-6.85,2-6.85,2-4.1-1.11-16.37-.17-16.37-.17.18,5.91-1.37,11.48-11.75,12.84-13.82,1.8-26.16-7.63-32.42-14a52.43,52.43,0,0,0-18.86,2.69,28.14,28.14,0,0,0-10.5-2.76l-20.31-18.26s-23.79,6.87-27.54,42.73c0,0,26.71,20.33,28.64,36.39h0l.73,6.09,2.59,21.57,4.56,37.82-13.57,75.34a11,11,0,0,0-.18,2,11.11,11.11,0,0,0,8.5,10.79s1.17.19,3.32.49c14.38,2,72.76,9,118.53-3.44a22.24,22.24,0,0,0,16.22-23.27l-9.69-121.52h0S2393.76,948.83,2394,945.41Z"/><path class="cls-8" d="M2286.3,1059.62c-.91,26.28-3.48,48.55-18.52,56.88-2.15-.3-3.32-.49-3.32-.49a11.11,11.11,0,0,1-8.5-10.79,11,11,0,0,1,.18-2l13.57-75.34-4.56-37.82.34-1S2287.45,1026,2286.3,1059.62Z"/><path class="cls-9" d="M2351.64,894.86c-19.07-.5-33.62-19.28-33.62-19.28l33,1.34A55.68,55.68,0,0,0,2351.64,894.86Z"/><path class="cls-3" d="M2360.89,884.24s-38,10-51.15-20.2c-14.16-32.63,1.37-56.41,14.29-58,25.75-3.2,40.71,6.62,45.23,17S2381.87,878.89,2360.89,884.24Z"/><path class="cls-10" d="M2345.81,867.22s1.59,3.92,11.62,1.72c0,0,8.43-1.85,7.47-6.28C2364.9,862.66,2356.16,860.76,2345.81,867.22Z"/><path class="cls-4" d="M2316.53,874.62s-4.46-13.09-3.93-20.07c0,0-9.92-12.65-4.14-15.79s8.9,4.36,10.23,2.89,3.39-26.33,10.41-25.55,33,8.84,44.39-1-16.24-48.2-63.06-33.38S2273.17,848.63,2316.53,874.62Z"/><path class="cls-4" d="M2287.33,802.16s-2.12-6.33.16-10.84c0,0,.11,6.22,2.55,9S2287.33,802.16,2287.33,802.16Z"/><path class="cls-4" d="M2288.3,797.74s-5.79-.66-8.52,3.79a7.45,7.45,0,0,1,8.2.17Z"/><path class="cls-3" d="M2439.74,797a29.68,29.68,0,0,0-1.57-10.42c-1.82-4.76-.75-17.13,1.59-16.43s1.29,5.14,3.9,4.61,6.79-14.89,10.19-13.58,5.86,6.14,4.82,16.59-5.87,20.82-5.87,20.82Z"/><path class="cls-3" d="M2202.27,784a33.33,33.33,0,0,1-.27-11.84c1.11-5.63-2.46-19.13-4.92-17.91s-.44,5.94-3.44,5.87-10.39-15.2-13.9-13.1-5.32,7.94-2.15,19.32,10.51,21.95,10.51,21.95Z"/><path class="cls-9" d="M1371.5,919.67s52.1,33.84,68.82,51c0,0,64.18,20.11,68.45,21.82s-2.18,15.41-2.18,15.41-61.15-4.31-79.85-12.61-81.25-33.64-85.23-54.82S1371.5,919.67,1371.5,919.67Z"/><polygon class="cls-3" points="1310.16 1313.92 1298.48 1376.08 1277.29 1376.08 1271.81 1300.22 1310.16 1313.92"/><polygon class="cls-3" points="1405.64 1308.33 1418.89 1376.83 1400.32 1377.6 1365 1310.82 1405.64 1308.33"/><path class="cls-11" d="M1298.93,1373.71s5,9.13,14.54,11.2a23.75,23.75,0,0,1,14.3,8.79,5.57,5.57,0,0,1-4.48,8.88H1275a6.93,6.93,0,0,1-6.9-7.63c.36-3.58.74-7.74.9-10.93.35-7,7.86-13.27,7.86-13.27s6.65,3.76,9.21,4.2C1291.67,1375.89,1298.93,1373.71,1298.93,1373.71Z"/><path class="cls-11" d="M1418.41,1373.72s5,9.15,14.47,11.27a23.86,23.86,0,0,1,14.26,8.87,5.58,5.58,0,0,1-4.54,8.86l-48.24-.27a6.94,6.94,0,0,1-6.86-7.67c.38-3.58.78-7.74,1-10.93.4-7,7.94-13.22,7.94-13.22s6.62,3.8,9.18,4.25C1411.14,1375.85,1418.41,1373.72,1418.41,1373.72Z"/><path class="cls-7" d="M1416.64,1311.17a229.42,229.42,0,0,1-42.22,8.27c-20.85,1.9-43.54,0-53.1-14.43-2.78-4.18-4.34-11.44-5-20.83-4-57.45,26.36-194.61,26.36-194.61h35.42C1378.1,1092.39,1416.64,1311.17,1416.64,1311.17Z"/><path class="cls-12" d="M1374.42,1319.44c-20.85,1.9-43.54,0-53.1-14.43-2.78-4.18-4.34-11.44-5-20.83l.09-.31c5.65-21,21-151.5,21-151.5S1390.42,1271.9,1374.42,1319.44Z"/><path class="cls-7" d="M1265.14,1097.53s-15.92,106.83-23.12,220.84c0,0,50,20.54,96.38,4.11l8.48-217.41Z"/><path class="cls-8" d="M1289,787.81s-3.22-14.2-16.64-14.89c0,0,4.28,2.56,5,5.26,0,0-7.79-6.54-19.86-2.16s-30,16.66-21,45.24-9.4,35.68-16.8,54.12,17.79,22,12.57,36.38,10.32,48.4,49.85,33.54,48.52-71.9,31.72-85.83S1289,787.81,1289,787.81Z"/><path class="cls-13" d="M1301,787s-17.75-2.37-28.76,9.13c-5.94,6.21.19,15.14.19,15.14Z"/><path class="cls-8" d="M1354.82,814.55c-.34-.57-14.45-22.87-40.82-27.32-21.36-3.61-41.35,11.48-44.64,32.9s.07,49.4,35.17,59.44Z"/><path class="cls-3" d="M1348.36,910.43,1308.63,934l-10-28s4.61-10.2,5.94-26.5a108.37,108.37,0,0,0-.64-23.5l34.55,15a63.44,63.44,0,0,0-.84,7.75,55.74,55.74,0,0,0,1.71,17.86C1340.87,902,1343.62,907.06,1348.36,910.43Z"/><path class="cls-9" d="M1339.31,896.68c-19,.71-34.78-17.11-34.78-17.11l33.07-.75A55.74,55.74,0,0,0,1339.31,896.68Z"/><path class="cls-3" d="M1347.87,885.5s-37.32,12.43-52.33-16.91c-16.2-31.67-2.21-56.39,10.58-58.81,25.49-4.83,41.05,4,46.22,14.1S1368.47,878.82,1347.87,885.5Z"/><path class="cls-10" d="M1331.74,869.46s1.84,3.82,11.71,1c0,0,8.29-2.37,7-6.74C1350.5,863.7,1341.66,862.36,1331.74,869.46Z"/><path class="cls-14" d="M1398.57,938l-31.67-25.73v0a27.08,27.08,0,0,0-14.58-6.3c-2.24-.28-6.93-1.15-9.55-1.46.45,5.89.44,10.66-9.86,12.47-13.73,2.41-27.35-5.88-33.88-12-10.74,2-15.93,3.35-24.48,6.74a22.33,22.33,0,0,0-14,23.32l10.54,90.87s-12.6,77.37-10.44,77.58c14.45,1.38,77.65,14.06,122.83-.38,7.29-2.33-10.23-43.3-6.71-127.1C1401.87,961,1398.57,938,1398.57,938Z"/><path class="cls-8" d="M1321.72,813.27s.5,29.3-16.39,39c0,0,6.67-13.81,4.42-22.24,0,0-4.36,26.14-17.7,30.69s-20.08-48.53,7.52-59.2,54.8,2,58,20.66.77,22.56.77,22.56S1345.48,809.18,1321.72,813.27Z"/><path class="cls-15" d="M1260.69,1103.5c-2.16-.21,10.44-77.58,10.44-77.58l-10.54-90.87a22.25,22.25,0,0,1,2.68-13.43,4.45,4.45,0,0,1,2.14,1c22.12,18.66,42.44,94.29,42.44,94.29S1318.52,1078.14,1260.69,1103.5Z"/><path class="cls-3" d="M1257.41,945.27s-18.83,71.07-15.39,84.14,40.11,43.32,46.22,45.3l4.4-11.63s-27.89-38.47-25.52-42.62c5.11-9,25.52-61.38,25.52-61.38Z"/><path class="cls-14" d="M1287.29,972.85s-21.63,3.78-42.74-18c0,0,17.93-52.46,40.28-41.83S1301.8,960.2,1287.29,972.85Z"/><path class="cls-3" d="M1292.64,1063.08s18.47,3.62,19.25,9.59c.63,4.77-7.77,12.58-12.29,10.94s-11.36-8.9-11.36-8.9Z"/><path class="cls-9" d="M1508.77,992.51s27.14-14,29.55-9-3.34,19.85-9.09,21.7-22.64,2.73-22.64,2.73Z"/><path class="cls-3" d="M1542.51,523.29c-3.59,6.37-1.75,127-5.31,137.12-11.38,32.41-2.85,115.14-9,122.93s-12.8,24.48-9.46,32.27,4.37,17.79,11.92,17.52S1583,566.91,1583.47,560,1542.51,523.29,1542.51,523.29Z"/><path class="cls-3" d="M1731.72,713.59s9.65,11.87,8.91,17.44-8.91,18.92-8.91,18.92S1711,708,1712.43,704.69s14.1-5.94,14.1-5.94Z"/><path class="cls-14" d="M1501.49,1367.07l19.94,7.42s86.61-120.11,97.27-225.79c1.91-18.87,1.27-37.15-2.85-54,0,0,.85-4.84,2.33-13.38.68-4,1.53-8.8,2.49-14.3,2.82-16.13,6.69-38.2,11.12-63.34,10.19-57.84,23.39-131.77,33.65-186.13l-5.38-1.72L1601.93,797l-12-38.15-43.28-11.4s-9.67,18.92-18.32,108.27c-1.59,11.72-3,24.65-4.13,38.66a764.56,764.56,0,0,0,4.12,156.52q3,23.3,7.6,48c2.28,12.08,2.62,28.54,1.66,47.44C1533.21,1232.81,1501.49,1367.07,1501.49,1367.07Z"/><path class="cls-15" d="M1524.19,894.42l94,186.87c.68-4,1.53-8.8,2.49-14.3,2.82-16.13,6.69-38.2,11.12-63.34,10.19-57.84,23.39-131.77,33.65-186.13l-5.38-1.72L1601.93,797l-12-38.15-43.28-11.4s-9.67,18.92-18.32,108.27C1526.73,867.48,1525.28,880.41,1524.19,894.42Z"/><path class="cls-14" d="M1565.54,771.47l2.17-18.66c36.46,9.69,133.86-27,133.86-27s35.31,31,30.68,105.45c-2.27,36.32-6.4,190.66-10.72,236.32-1.56,16.56-2.93,28.34-3.49,33a.11.11,0,0,0,0,0,6.52,6.52,0,0,0,1.06,4,214.27,214.27,0,0,1,15.94,33.52c42.38,112.92-6.53,252-6.53,252l-12.69-5.11s-27.83-154.77-50.44-223.14c-3.84-11.6-7.52-20.71-10.89-26.16-9.83-15.87-19-41.8-27.24-72.63C1611.59,1004.82,1599,929,1590.6,870.44,1589.45,870.49,1565.54,771.47,1565.54,771.47Z"/><path class="cls-3" d="M1720.92,501a3,3,0,0,1-.16.37c-11.08,25.74-32.12,59.27-67.42,62.84-10.75,1.08-22.81-.6-36.32-6.12-15.5-6.34-27.37-14.28-36.45-23a310.82,310.82,0,0,1,33.37-49.1l0,0s2.32-.16,6.15-.37c1.54-1.35,2.72-5.77,3.65-11.55.61-3.82,1.11-8.24,1.5-12.75.42-4.87.74-9.87,1-14.34.45-8.8.57-15.61.57-15.61l49.7-5.27,3-.3a155.54,155.54,0,0,0,.76,38,76.81,76.81,0,0,0,4.57,17.47,23.41,23.41,0,0,0,4.13,7c3.77.82,8.31,1.9,12.58,3.12a52.67,52.67,0,0,1,19.26,9.48A1.14,1.14,0,0,1,1720.92,501Z"/><path class="cls-16" d="M1677.43,454.92s-24.2,20.47-53.65,19c.61-3.82,1.11-8.24,1.5-12.75.42-4.87.74-9.87,1-14.34C1639,446.51,1656,448.65,1677.43,454.92Z"/><path class="cls-4" d="M1736.63,344.86c1.68-2.13,20.71-24.49,57.56.68,0,0-19.22-10.88-28-5.35,0,0,19.08-.76,26.62,9.52s.68,31.69-3.41,37.38S1766.51,407,1759.15,404a23.6,23.6,0,0,1-7.54-5.52,103.73,103.73,0,0,1-1.5,12.16c-7.28,40-43.2,57.89-53,45.79-6.29-7.75-18.25,3.92-18.25,3.92L1648.17,343.5S1718.19,306.41,1736.63,344.86Z"/><path class="cls-3" d="M1707.93,399.44c-3.1,11.09-10,24-16.51,39.75-10.62,25.81-42.33,21.59-61,16.5h0a118.43,118.43,0,0,1-14-4.75c-15.12-7.63,4-73.24,12.14-84.46s21.49-22.43,58.91-4.48C1709.15,372.41,1712.2,384.13,1707.93,399.44Z"/><path class="cls-17" d="M1654.72,1400.54h100.42s2.41-15.3-2.83-26.92c-5-11.14-12.9-16.2-11-29.68-6.38,6.57-16.78,13.93-31.3,12-1.78,2.89-11.48,18.32-17.42,22.59C1686,1383.22,1656.74,1381.53,1654.72,1400.54Z"/><path class="cls-17" d="M1439.09,1400.54h100.43s3.75-16-2.84-26.92c-5.83-9.64-3.6-15.13.72-23.11a38.9,38.9,0,0,1-16.91,3.18c-5-.28-10.29-2.55-14.93-5.25-4.33,4.93-22.83,25.9-28.62,30.06C1470.38,1383.22,1441.12,1381.53,1439.09,1400.54Z"/><path class="cls-4" d="M1638.86,346.41c13.9-7.44,19.9-2.09,22.44,2.91,40.22-4.58,50.42,30.78,50.42,30.78-7,28.48,6,51.8,6,51.8s-13.71,2.27-36.28-14.57c-6.89-5.15-11.53-13.45-14.65-22.49a151.74,151.74,0,0,0,12,39.34c-24.42-26.31-19.31-73.19-18.7-78.11-5,1.78-15.18,6-20.26,12.07-6.9,8.3-16.29,27.35-21.73,24.34C1618.16,392.48,1618,357.57,1638.86,346.41Z"/><path class="cls-7" d="M1735.72,578.68a6.1,6.1,0,0,0-2.59-2.49,5.63,5.63,0,0,1-2.44-2.2,88.57,88.57,0,0,1-8.1-13.39c-2-4.5-2.86-8.66-1.74-12.66a60.71,60.71,0,0,1,3.36-8.92c.63-1.38,1.31-2.75,2-4.11a128.56,128.56,0,0,1,18.52-25.68c-13.67-11.93-43.25-17.9-43.25-17.9s-.46,1.6-1.38,4.16c-6.21,16.88-36.32,40-41.36,43.88-6.3,4.8-67.94,2.76-69-7.11-1-9.69,23.27-45,24.17-46.35,0,0,0-.05,0-.05-28.8,1.18-40.75,6.39-40.75,6.39h0s-22.56,6.65-41.94,44c0,0,11,8.23,24,12.33a62.53,62.53,0,0,0-3,20.13,24.87,24.87,0,0,0,.26,4c24.59,129.71-14.79,180.93-14.79,180.93-12.3,22.69,182.43,57.92,190.5,36.19,3.5-5,5.19-11.64,5.59-19.08,1-17.48-5.16-39.68-11.56-57.55-2.17-6.1-4.38-11.68-6.35-16.41a57.38,57.38,0,0,1-3-9.49,55.66,55.66,0,0,1,.08-24.7C1720.52,630.45,1729.87,596.47,1735.72,578.68Z"/><path class="cls-3" d="M1801.33,660.41l-74.8,38.34,5.19,14.84s110.76-13.88,117.34-41.07Z"/><path class="cls-8" d="M1715.94,696.83c2,4.73,4.18,10.31,6.35,16.41-.08.24-.11.35-.11.35-65.92-50.45.41-153,.41-153a88.57,88.57,0,0,0,8.1,13.39,5.63,5.63,0,0,0,2.44,2.2,6.1,6.1,0,0,1,2.59,2.49c-5.85,17.79-15.2,51.77-22.69,84a55.66,55.66,0,0,0-.08,24.7A57.38,57.38,0,0,0,1715.94,696.83Z"/><path class="cls-3" d="M1744.75,509.23s95.06,85.21,104.31,163.29c0,0-13.57,4.93-31,0s-111.37-109.84-108.52-122.31S1744.75,509.23,1744.75,509.23Z"/><path class="cls-7" d="M1726.51,498.9s38.76,12.87,56,38.47c0,0-14.57,33.1-70.17,41.87C1712.35,579.24,1675.51,528.88,1726.51,498.9Z"/><path class="cls-3" d="M2061.26,1376.46l-19.31,10a323,323,0,0,1-21.86-33.22c-7.22-12.72-13.85-27-15.48-38.68-3.94-28.39-34-75-30.86-83s62.72-21.69,62.72-21.69,11.65,79.76,19.39,131.32C2058.12,1356.26,2060.05,1368.91,2061.26,1376.46Z"/><path class="cls-18" d="M2046.55,1265.11a123.08,123.08,0,0,1-30.07,10.15,96.33,96.33,0,0,1-27.32,1.7c-1.61-.16-2.47-.31-2.47-.31s-10.72-7.72-23.15-25.72c-11.39-16.5-19.85-40.1-19.85-40.39l91-8.86Z"/><path class="cls-19" d="M2016.48,1275.26a96.33,96.33,0,0,1-27.32,1.7l10.23-39.73S2012.63,1257.93,2016.48,1275.26Z"/><path class="cls-20" d="M2061.26,1376.46l-19.31,10a323,323,0,0,1-21.86-33.22,76.42,76.42,0,0,0,35.77-12C2058.12,1356.26,2060.05,1368.91,2061.26,1376.46Z"/><path class="cls-3" d="M2017.39,1228.12s-24.4,34.43-39.17,82.8c-3.48,11.4-15.33,25.59-27.3,38.19-11.62,12.24-23.36,23-27.71,28.27l-19.66-9.46a262.71,262.71,0,0,1,17.14-37.82,106.68,106.68,0,0,1,12.56-18.19c6.27-7,4.2-95.54,10.44-101.37S2017.39,1228.12,2017.39,1228.12Z"/><path class="cls-18" d="M2029,1207.63l-36,73.21c-.21,0-26.84.83-45.76-9.76-10.84-6.07-15.71-13.25-15.71-13.25l11.23-50.2Z"/><path class="cls-7" d="M1964.5,963.21s-12.25-25.77-41.84-10.43-.79,73.79-16.32,88.23,5.63,23.9,2.48,34.25,5.85,22.13,26.56,20.75,42.52-.27,51.88-18.39,7.22-58,3.61-63.59S1964.5,963.21,1964.5,963.21Z"/><path class="cls-3" d="M1962,1070.24l.1.06C1962.05,1070.34,1962,1070.24,1962,1070.24Z"/><path class="cls-3" d="M2012.46,1100.66l-50.32-30.36c.28-.11,1.29-1.63,5.06-12.52a61.08,61.08,0,0,0,2.87-11.86c0-.32.08-.62.11-.93a32.93,32.93,0,0,0,.14-7.32l11,4,20.39,7.38c-.24,5.17.49,8.81,1.59,11.31,2.66,6.06,7.62,6.1,7.76,6.1Z"/><path class="cls-16" d="M2003.32,1060.35a37.79,37.79,0,0,1-33.25-14.43c-.37-.47-.55-.74-.55-.74l.66-.19c1.6-.48,6-1.79,11.16-3.33l20.39,7.38C2001.49,1054.21,2002.22,1057.85,2003.32,1060.35Z"/><path class="cls-3" d="M2004.31,1053.27s-43.78,4.81-44.68-24.79-7.37-43.15,22.92-45.79S2020,991,2021.78,1001C2027.36,1032.27,2016.64,1051.94,2004.31,1053.27Z"/><path class="cls-21" d="M1922.66,952.78c-.61-1.37-1.05-2.26-1.05-2.26A7.25,7.25,0,0,1,1922.66,952.78Z"/><path class="cls-3" d="M2018.38,1069.41s42-32.25,46.45-42.93,23.76-49.76,28.73-53.74c0,0,10.44-1.34,11.93,5.88s-9.93,50.09-17.9,63-46.13,56.83-58.67,63.2Z"/><path class="cls-3" d="M2120.39,953c-.69,3.74-2.21,7.75-4,9.83-2.36,2.77-6.09,8.3-8.45,11.9-1.52,2.22-2.49,3.88-2.49,3.88l-11.9-5.81s-.28-20.21,7.61-24.5c.28-.14.41-.28.69-.28a49.31,49.31,0,0,1,9.28-3.88c3.73-1,6.64-1.11,8.3-.14S2121.22,948.83,2120.39,953Z"/><path class="cls-7" d="M1984.91,997.15c-15.49-3.92-9.57,23.53-13.49,21.65-4.38-2.11-11.9-2.07-10.71,3.21s2.9,7.18,3.79,10.48,0,9.84-3.61,8.52-37.1-39.57-13.45-69.36,94.19-11.44,72,19.72C2015.52,996.86,1995.93,999.94,1984.91,997.15Z"/><path class="cls-5" d="M2041.13,1218.43s-13.16,7-33.87,6.65c-13.19-.2-41.21-5.94-59.22-12.44-10.27-3.69-17.29-7.65-16.44-11,1.21-4.78,10-41.47,18.13-75.43,7.43-31,14.3-59.8,14.3-59.8s20.5,14.57,32.45,9.43,10.41-11,10.41-11,7.82-3.16,11.48-2,14.07-4.74,14.07-4.74,11.49,8.88,11.93,28a53,53,0,0,1-.59,9.15l-8.3,9.56S2053.08,1160.33,2041.13,1218.43Z"/><path class="cls-22" d="M2093.23,1400.17h-57.64a73.12,73.12,0,0,1,.22-17.39,5,5,0,0,1,1.42-2.63,20.85,20.85,0,0,0,13.85,0,28.49,28.49,0,0,0,10.2-6.34c.6.57,12.51,11.92,18,11.92C2084.94,1385.7,2093.56,1388.42,2093.23,1400.17Z"/><path class="cls-20" d="M1950.92,1349.11c-11.62,12.24-23.36,23-27.71,28.27l-19.66-9.46a262.71,262.71,0,0,1,17.14-37.82A42,42,0,0,0,1950.92,1349.11Z"/><path class="cls-22" d="M1927.48,1372.3s-.72,12.51,3.45,14.17,12,5.76,12,13.7H1914s-19.91-9.79-22.57-14,13.27-21.93,13.27-21.93S1914.48,1375.11,1927.48,1372.3Z"/><path class="cls-3" d="M1975.25,1168.9s12.64-2.36,17.59.88,6.41,8.3,2.85,10.37c-11.16,6.49-22.47-.69-22.47-.69Z"/><path class="cls-23" d="M1948,1212.64c-10.27-3.69-17.29-7.65-16.44-11,1.21-4.78,10-41.47,18.13-75.43,2.4-4.4,3.92-7,3.92-7S1969.07,1189.7,1948,1212.64Z"/><path class="cls-3" d="M1964.54,1070.41s-38.94,8.24-54.3,68.78a18.36,18.36,0,0,0,4.14,16.79c7.06,7.83,22.63,19.27,58.84,23.48,4,.46,4.48-9.56,4.48-9.56-.39.79-24.59-15.64-34.89-24.47-1.87-1.6-1.79-5-.44-7,3.48-5.31,9.32-14.49,11.28-19.2C1956.51,1112.34,1975.42,1073.53,1964.54,1070.41Z"/><path class="cls-5" d="M1964,1066.45s-22.89,1.63-41.56,26.52c0,0,6.32,22.9,36,29C1958.44,1122,1976.72,1080.75,1964,1066.45Z"/><g id="man"><path class="cls-17" d="M1029.53,1317.17s17.17,15.92,13.82,27.22-18.84,18.85-20.93,32.67-10.47,21.35-18,21.35H968.47s-5.54-9.72,7.86-12.65,18.45-19.17,17.61-34.25,1.26-35.17,1.26-35.17l28.47-6.7Z"/><path class="cls-17" d="M818.9,1360.56s4.19,33.5-3.35,37.27-97.57,2.51-97.57,2.51,0-11.31,15.5-13.82,42.71-11.72,47.32-32.24S818.9,1360.56,818.9,1360.56Z"/><path class="cls-14" d="M737.46,849s5.09,63.48,11.07,139.78c8.13,103.66,17.9,231,18.87,255.1,1.67,41.88,8.38,108.88,8.38,108.88s15.9,15.91,47.73,9.21c0,0,28.37-95.64,36.47-196.83.13-1.66.25-3.33.38-5,7.54-103,19.26-319.94,19.26-319.94Z"/><path class="cls-15" d="M737.46,849s5.09,63.48,11.07,139.78L860,1165.15c.13-1.66.25-3.33.38-5,7.54-103,19.26-319.94,19.26-319.94Z"/><path class="cls-14" d="M760.7,856.55s91.7,229.89,152,337.93,79.15,138.19,79.15,138.19,34.54-13.82,37.68-23.24c0,0-23-208.58-63.44-259.42-22.82-28.73-49.62-115-50.88-145.1s-8.16-89.82-8.16-89.82Z"/><path class="cls-3" d="M580.72,824.73S548.36,840.26,544,844.25s-15.11,23.56-14.29,25,2.44,1.93,5.37-.09,11.17-10.51,11.47-8.94-22,27.79-18,33.33,26.27,3.91,39-5.16S593,846,594.94,844.2C611.2,828.77,580.72,824.73,580.72,824.73Z"/><path class="cls-8" d="M579.26,841.37c-9-7.81-9.22-9.79-9.22-9.79s57.39-99.23,62.36-108.78,35.73-158.57,35.73-158.57L774.46,533.4s-74.9,193.66-88,217.59c-21.61,39.55-92.17,97.76-92.17,97.76A33.2,33.2,0,0,1,579.26,841.37Z"/><path class="cls-3" d="M720.3,494.62s-37.42,65.84-74,74.43c0,0,1.53-22.11,10.43-37.24-3.64-4.3-6.85-8.25-9.62-11.79a219.53,219.53,0,0,1-13.58-19l12.41-33.37L654.36,445a108.82,108.82,0,0,0,13.16,19C691.49,491.51,720.3,494.62,720.3,494.62Z"/><path class="cls-24" d="M667.52,464S672,497,647.11,520a219.53,219.53,0,0,1-13.58-19l12.41-33.37C659.25,463.58,667.52,464,667.52,464Z"/><path class="cls-3" d="M623.67,505.87s55.9-21.8,41.79-56.4-16.39-60.73-52.68-48.28-37.8,28.47-35.9,41.17S608.76,510.65,623.67,505.87Z"/><path class="cls-7" d="M912.47,832.46c-22.55,32.42-191.18,75.74-189.16,53.31a244,244,0,0,0,0-44.26c-.42-4.81-1-9.92-1.79-15.29-4.3-29.51-14.46-67.41-37.16-111.32-1.7-3.29-3.47-6.6-5.31-10a339.41,339.41,0,0,1-23.37-52.52c-11.69-33.76-16.41-66.07-10.5-87.18a.76.76,0,0,1,.09-.29c35.24-16.3,48.89-79.51,48.89-79.51S814.38,507,881.75,667.3c0,0,6.47,17.6,13.86,41.49,9,29,19.32,67.17,21.11,94.41C917.59,816.14,916.52,826.62,912.47,832.46Z"/><path class="cls-25" d="M673.49,385.18c.39-.77,1.53-1.6,4.31-2.45a11.73,11.73,0,0,0-5.63-.21c-1.57-3.83-5.39-10.35-12.54-10.4a8.81,8.81,0,0,1,5.61,5.18c-9.8-6.22-28-8-73.36,7.09C532.08,404.31,562,439,571,441.81s25.75-15.08,40.76-17.52,23.12,18.47,28.85,20.2,2.47-3,8.46-7.78,9.43,6.44,9.3,14.31,11.55,15.33,11.55,15.33l6.85-12.56c6.85-12.57,5-58.2-1.56-66.41Z"/><path class="cls-8" d="M916.72,803.2c-145.1-43.77-168.18-216.76-168.18-216.76s82.61,63.13,147.07,122.35C904.58,737.76,914.93,776,916.72,803.2Z"/><path class="cls-3" d="M956.5,808.88s-3.27,27.45-2.48,31.93,6,17.81,7.32,17.88,5.24.23,5.14-2.51-1.89-5.31-.74-4.86,1.48,10.82,6.71,10.55,20.63-6.08,20-18.11-17-34.08-17.43-36.07C971.72,790.74,956.5,808.88,956.5,808.88Z"/><path class="cls-7" d="M965.19,813.51c-11.51,5.28-15.78-.1-15.78-.1s-67.06-112-74.12-121-130.85-62.12-130.85-62.12-50.37-19.26-52.36-49.82c-1.73-26.55,13.34-42.87,29.85-52.71a55.74,55.74,0,0,1,62.66,4.05c40.6,31.54,121.1,95,134,112.17,28.83,38.28,60.79,158.28,60.79,158.28A39.86,39.86,0,0,1,965.19,813.51Z"/></g><path class="cls-3" d="M424.7,1067.62S395,1193.71,397.78,1222.28c3.78,38.48,5.18,143.06,5.18,143.06h29.57s27.45-85,20.54-140.39c-3.72-29.85,67.71-161,67.71-161Z"/><path class="cls-7" d="M527.78,1075l-32.44,81.44-18.18,45.66c-3.65.49-7.19.84-10.6,1.05-48.65,3-74.75-20.36-74.75-20.36l21.8-100.94Z"/><path class="cls-17" d="M495.34,1156.44l-18.18,45.66c-3.65.49-7.19.84-10.6,1.05-10.44-67,27.42-88.28,27.42-88.28S494.66,1134.29,495.34,1156.44Z"/><path class="cls-3" d="M460.28,1072.51s56.38,155.34,71.33,174.6,93,100.78,93,100.78l15.14-17.13s-8.61-35.7-23.45-65.11c-12.34-24.46-35.87-34.37-37-40.7-7.22-41.69-28-161-28-161Z"/><path class="cls-3" d="M372,904.15s-27.53,77.45-33.08,83.75-61.23,47.77-61.23,47.77l7.17,12.87s73.58-33,85.8-44.61,46.78-103.72,46.78-103.72Z"/><path class="cls-3" d="M277.69,1035.67a33.35,33.35,0,0,1-11.47,2.78c-5.71.11-18.07,6.45-16.36,8.58s5.87-.83,6.43,2.1-12.57,13.33-9.78,16.3,8.84,3.49,19.23-2,19.12-14.88,19.12-14.88Z"/><path class="cls-7" d="M465.52,1087.5l34.07,110.41S564,1188.39,585.7,1156c0,0-17.57-84.38-34.39-92S465.52,1087.5,465.52,1087.5Z"/><path class="cls-3" d="M511.24,910.81s53.87,62.07,56.63,70,11.46,76.81,11.46,76.81l14.73.09s7.49-80.29,3.38-96.65-67.27-91.76-67.27-91.76Z"/><path class="cls-26" d="M491.18,747.51c1.1-14.81-4.59-24.75-12.72-33.91-7.79-8.79-16.7-7.85-26.47-14.8-9.2-6.55-24.91-9.37-36.78-7.55-38,5.84-67.32,34.16-53.76,72.45,4.31,12.17,3.82,22.35,16.23,35.44,15.48,16.34,33.16,28.64,57.93,24.84,13.14-2,24.19-6.82,32.85-18C473.18,800,481,798.1,485,791.67,493,778.69,490,763.69,491.18,747.51Z"/><path class="cls-3" d="M404.77,855.62l51.07,16.92,4.44-34.31s-7.78-10.44-13.37-28.64a126.77,126.77,0,0,1-5.13-26.89l-35.55,25.68a73.43,73.43,0,0,1,2.89,8.6,64.86,64.86,0,0,1,2.51,20.74C411.2,844.19,409.31,850.59,404.77,855.62Z"/><path class="cls-27" d="M558.94,1062.88a14,14,0,0,0-.56-2.23l-28.94-84.3L528,932l-.83-25.28L525.27,849c-24.32-8-45.77-11-65-10.79-6.06,8.47-18.6,21.5-34.82,21.88-12.18.27-15-5.66-15.87-12.49-16.85,4.82-30.08,18.9-30.08,18.9l-21.42,48.14s13.42,15.44,30.1,17.47L404,1051.71c.89,12.4-6,41.84,6.3,43.24,54.87,6.2,120.83-12.14,137-17,2.42-.73,3.73-1.15,3.73-1.15A13,13,0,0,0,558.94,1062.88Z"/><path class="cls-28" d="M498,1008.38c5.31,30.15,30.6,62.65,49.38,69.57,2.42-.73,3.73-1.15,3.73-1.15a13,13,0,0,0,7.88-13.92,14,14,0,0,0-.56-2.23l-28.94-84.3L528,932l-.57-1.1S488.56,955.13,498,1008.38Z"/><path class="cls-29" d="M411.63,837.72c21.85-4,35.28-28.13,35.28-28.13L409.12,817A64.86,64.86,0,0,1,411.63,837.72Z"/><path class="cls-3" d="M407.5,824.79s49.39-1.54,45.17-35.85-27.82-53.32-41.26-51c-26.81,4.64-29.58,16.19-31,28S384.82,825.81,407.5,824.79Z"/><path class="cls-10" d="M417.44,803.12s-.4,4.42-11.13,5.26c0,0-9,.72-9.41-4C396.9,804.36,405.09,799.79,417.44,803.12Z"/><path class="cls-26" d="M399.46,740.1s41.42-6.39,36.27,23.52c-3.24,18.84,17.13,18.56,17.13,18.56l5.19-30.2-9.45-21.46Z"/><path class="cls-3" d="M579.33,1057.63A33.3,33.3,0,0,1,576.1,1069c-2.71,5-3.27,18.9-.58,18.47s2.17-5.53,5-4.57,5.42,17.5,9.38,16.53,7.39-6,7.72-17.73-3.55-24-3.55-24Z"/><path class="cls-27" d="M460.28,838.23l9.29,13.07,9,12.69,48.25,67.89c4.31-7.75,40-27.61,40-27.61S539.8,862.16,525.26,849c-4.17-3.78-11.31-6.27-19.38-7.91a155.25,155.25,0,0,0-20.7-2.57C471.67,837.71,460.28,838.23,460.28,838.23Z"/><path class="cls-30" d="M400.84,1312s16.34,4.49,48.29,2.29c0,0-5.2,29.91-1.87,37.38s12.87,28.66-1.66,32.82c-11.52,3.29-62.14,2.93-82.68,2.64a17.47,17.47,0,0,1-16.24-11.42c-2.3-6.4-1.4-14.11,11.69-19.05l29.46-7.88C404.68,1340.21,400.84,1312,400.84,1312Z"/><circle class="cls-4" cx="439.16" cy="1390.26" r="10.28" transform="translate(-501.51 276.34) rotate(-22.65)"/><circle class="cls-30" cx="439.16" cy="1390.26" r="7.27" transform="translate(-1007.46 1571.9) rotate(-79.63)"/><circle class="cls-4" cx="368.03" cy="1390.26" r="10.28" transform="translate(-875.27 667.43) rotate(-45)"/><path class="cls-30" d="M360.76,1390.26a7.27,7.27,0,1,1,7.27,7.27A7.27,7.27,0,0,1,360.76,1390.26Z"/><path class="cls-30" d="M581.8,1302.75s16.52-3.79,43.62-20.84c0,0,9.58,28.8,16.05,33.81s24.9,19.16,14.06,29.7c-8.59,8.35-53.35,32-71.58,41.45a17.46,17.46,0,0,1-19.71-2.37c-5.06-4.56-7.91-11.77,1.28-22.32l22.22-20.87C598.55,1325.81,581.8,1302.75,581.8,1302.75Z"/><path class="cls-4" d="M643.55,1358.45a10.28,10.28,0,1,1,13.93,4.19A10.28,10.28,0,0,1,643.55,1358.45Z"/><path class="cls-30" d="M646.21,1357a7.27,7.27,0,1,1,9.84,3A7.27,7.27,0,0,1,646.21,1357Z"/><path class="cls-4" d="M580.89,1392.11a10.28,10.28,0,1,1,13.92,4.19A10.29,10.29,0,0,1,580.89,1392.11Z"/><path class="cls-30" d="M583.54,1390.69a7.27,7.27,0,1,1,9.85,3A7.26,7.26,0,0,1,583.54,1390.69Z"/></g></g></svg>