<svg xmlns="http://www.w3.org/2000/svg" xmlns:xlink="http://www.w3.org/1999/xlink" viewBox="0 0 269.72 212.62"><defs><style>.cls-1{fill:url(#linear-gradient);}.cls-2{fill:url(#linear-gradient-2);}.cls-3{fill:url(#linear-gradient-3);}.cls-4{fill:url(#linear-gradient-4);}.cls-5{fill:url(#linear-gradient-5);}.cls-6{opacity:0.5;}.cls-7,.cls-9{fill:#fff;}.cls-8{fill:#086bd1;}.cls-9{fill-rule:evenodd;}.cls-10{fill:#b3dfff;}.cls-11{fill:#fbb03b;}.cls-12{fill:#ffd648;}.cls-13{fill:#227cbf;}.cls-14{fill:#97bbd3;}.cls-15{fill:#4dabff;}.cls-16{fill:#31374f;}.cls-17{fill:#cce9f1;}.cls-18{fill:#3232c6;}.cls-19{fill:#dee3fc;}.cls-20{fill:#2784e0;}.cls-21{fill:#54abed;}.cls-22{fill:#eaecfd;}.cls-23{fill:#59595c;}.cls-24{fill:#f27677;}.cls-25{fill:#f2f2f2;}</style><linearGradient id="linear-gradient" x1="140.25" y1="210.33" x2="140.25" y2="189.73" gradientUnits="userSpaceOnUse"><stop offset="0" stop-color="#f0f0fa"/><stop offset="1" stop-color="#dddcee"/></linearGradient><linearGradient id="linear-gradient-2" x1="92.14" y1="-40.85" x2="103.2" y2="125.02" gradientUnits="userSpaceOnUse"><stop offset="0" stop-color="#086bd1" stop-opacity="0.1"/><stop offset="1" stop-color="#dddcee" stop-opacity="0.2"/></linearGradient><linearGradient id="linear-gradient-3" x1="163.97" y1="124.11" x2="170.48" y2="36.33" gradientUnits="userSpaceOnUse"><stop offset="0" stop-color="#e4edf8"/><stop offset="1" stop-color="#d1e6f7"/></linearGradient><linearGradient id="linear-gradient-4" x1="139.87" y1="219.37" x2="130.46" y2="115.68" gradientUnits="userSpaceOnUse"><stop offset="0" stop-color="#baddf5"/><stop offset="1" stop-color="#badef6"/></linearGradient><linearGradient id="linear-gradient-5" x1="934.02" y1="-491.34" x2="927.05" y2="-427.25" gradientTransform="translate(-413.47 -842.87) rotate(82.36)" gradientUnits="userSpaceOnUse"><stop offset="0" stop-color="#f0f0fa" stop-opacity="0.5"/><stop offset="1" stop-color="#086bd1" stop-opacity="0.1"/></linearGradient></defs><g id="Layer_2" data-name="Layer 2"><g id="Layer_1-2" data-name="Layer 1"><ellipse class="cls-1" cx="140.25" cy="194.09" rx="115.4" ry="6.33"/><path class="cls-2" d="M20.42,74c9.7-59,63.82-77,107-62.9S192.62,76.15,176.7,125s-60.92-12-86.61,55.14C72.33,226.53,12.09,124.65,20.42,74Z"/><path class="cls-3" d="M85,116.14a79.49,79.49,0,0,0,159,0c0-43.9-30.6-109.65-79.49-60.76C133.48,86.42,85,72.24,85,116.14Z"/><path class="cls-4" d="M43.82,194.09c-8.38-16.72-9.36-37.94-9.36-61,0-110,74.47-74.48,97.61-32.05,25.8,47.33,77.19-23.7,97.61,32.05,7.94,21.69-3.26,44.32-13.26,61Z"/><ellipse class="cls-5" cx="169.45" cy="18.28" rx="13.29" ry="24.48" transform="translate(51.51 141.32) rotate(-52.37)"/><g class="cls-6"><rect class="cls-7" x="261.25" y="43.73" width="1.53" height="1.53" transform="translate(45.29 198.32) rotate(-45)"/><rect class="cls-7" x="254.89" y="43.73" width="1.53" height="1.53" transform="translate(43.42 193.81) rotate(-45)"/><rect class="cls-7" x="248.53" y="43.73" width="1.53" height="1.53" transform="translate(41.56 189.32) rotate(-45)"/><rect class="cls-7" x="242.16" y="43.73" width="1.53" height="1.53" transform="translate(39.69 184.82) rotate(-45)"/><rect class="cls-7" x="235.8" y="43.73" width="1.53" height="1.53" transform="translate(37.84 180.33) rotate(-45.01)"/><rect class="cls-7" x="267.62" y="43.73" width="1.53" height="1.53" transform="translate(47.15 202.82) rotate(-45)"/><rect class="cls-7" x="261.25" y="52.78" width="1.53" height="1.53" transform="translate(38.89 200.97) rotate(-45)"/><rect class="cls-7" x="254.89" y="52.78" width="1.53" height="1.53" transform="translate(37.02 196.46) rotate(-45)"/><rect class="cls-7" x="248.53" y="52.78" width="1.53" height="1.53" transform="translate(35.16 191.97) rotate(-45)"/><rect class="cls-7" x="242.16" y="52.78" width="1.53" height="1.53" transform="translate(33.3 187.47) rotate(-45)"/><rect class="cls-7" x="235.8" y="52.78" width="1.53" height="1.53" transform="translate(31.44 182.98) rotate(-45.01)"/><rect class="cls-7" x="267.62" y="52.78" width="1.53" height="1.53" transform="translate(40.76 205.47) rotate(-45)"/><rect class="cls-7" x="261.25" y="61.82" width="1.53" height="1.53" transform="translate(32.5 203.62) rotate(-45)"/><rect class="cls-7" x="254.89" y="61.82" width="1.53" height="1.53" transform="translate(30.63 199.11) rotate(-45)"/><rect class="cls-7" x="248.53" y="61.82" width="1.53" height="1.53" transform="translate(28.77 194.62) rotate(-45)"/><rect class="cls-7" x="242.16" y="61.82" width="1.53" height="1.53" transform="translate(26.9 190.12) rotate(-45)"/><rect class="cls-7" x="235.8" y="61.82" width="1.53" height="1.53" transform="translate(25.05 185.63) rotate(-45.01)"/><rect class="cls-7" x="267.62" y="61.82" width="1.53" height="1.53" transform="translate(34.36 208.12) rotate(-45)"/><rect class="cls-7" x="261.25" y="70.86" width="1.53" height="1.53" transform="translate(26.1 206.27) rotate(-45)"/><rect class="cls-7" x="254.89" y="70.86" width="1.53" height="1.53" transform="translate(24.23 201.76) rotate(-45)"/><rect class="cls-7" x="248.53" y="70.86" width="1.53" height="1.53" transform="translate(22.37 197.27) rotate(-45)"/><rect class="cls-7" x="242.16" y="70.86" width="1.53" height="1.53" transform="translate(20.51 192.77) rotate(-45)"/><rect class="cls-7" x="235.8" y="70.86" width="1.53" height="1.53" transform="translate(18.65 188.28) rotate(-45.01)"/><rect class="cls-7" x="267.62" y="70.86" width="1.53" height="1.53" transform="translate(27.96 210.77) rotate(-45)"/><rect class="cls-7" x="261.25" y="79.91" width="1.53" height="1.53" transform="translate(19.7 208.9) rotate(-45)"/><rect class="cls-7" x="254.89" y="79.91" width="1.53" height="1.53" transform="translate(17.83 204.39) rotate(-45)"/><rect class="cls-7" x="248.53" y="79.91" width="1.53" height="1.53" transform="translate(15.97 199.9) rotate(-45)"/><rect class="cls-7" x="242.16" y="79.91" width="1.53" height="1.53" transform="translate(14.11 195.4) rotate(-45)"/><rect class="cls-7" x="235.8" y="79.91" width="1.53" height="1.53" transform="translate(12.25 190.92) rotate(-45)"/><rect class="cls-7" x="267.62" y="79.91" width="1.53" height="1.53" transform="translate(21.57 213.41) rotate(-45)"/><rect class="cls-7" x="261.25" y="88.95" width="1.53" height="1.53" transform="translate(13.3 211.55) rotate(-45)"/><rect class="cls-7" x="254.89" y="88.95" width="1.53" height="1.53" transform="translate(11.44 207.04) rotate(-45)"/><rect class="cls-7" x="248.53" y="88.95" width="1.53" height="1.53" transform="translate(9.58 202.55) rotate(-45)"/><rect class="cls-7" x="242.16" y="88.95" width="1.53" height="1.53" transform="translate(7.71 198.05) rotate(-45)"/><rect class="cls-7" x="235.8" y="88.95" width="1.53" height="1.53" transform="translate(5.85 193.56) rotate(-45)"/><rect class="cls-7" x="267.62" y="88.95" width="1.53" height="1.53" transform="translate(15.17 216.06) rotate(-45)"/><rect class="cls-7" x="261.25" y="97.99" width="1.53" height="1.53" transform="translate(6.91 214.2) rotate(-45)"/><rect class="cls-7" x="254.89" y="97.99" width="1.53" height="1.53" transform="translate(5.04 209.69) rotate(-45)"/><rect class="cls-7" x="248.53" y="97.99" width="1.53" height="1.53" transform="translate(3.18 205.2) rotate(-45)"/><rect class="cls-7" x="242.16" y="97.99" width="1.53" height="1.53" transform="translate(1.32 200.7) rotate(-45)"/><rect class="cls-7" x="235.8" y="97.99" width="1.53" height="1.53" transform="translate(-0.54 196.21) rotate(-45)"/><rect class="cls-7" x="267.62" y="97.99" width="1.53" height="1.53" transform="translate(8.78 218.71) rotate(-45)"/><rect class="cls-7" x="261.25" y="107.04" width="1.53" height="1.53" transform="translate(0.51 216.85) rotate(-45)"/><rect class="cls-7" x="254.89" y="107.04" width="1.53" height="1.53" transform="translate(-1.35 212.34) rotate(-45)"/><rect class="cls-7" x="248.53" y="107.04" width="1.53" height="1.53" transform="translate(-3.21 207.85) rotate(-45)"/><rect class="cls-7" x="242.16" y="107.04" width="1.53" height="1.53" transform="translate(-5.08 203.35) rotate(-45)"/><rect class="cls-7" x="235.8" y="107.04" width="1.53" height="1.53" transform="translate(-6.94 198.86) rotate(-45)"/><rect class="cls-7" x="267.62" y="107.04" width="1.53" height="1.53" transform="translate(2.38 221.36) rotate(-45)"/><rect class="cls-7" x="261.25" y="116.08" width="1.53" height="1.53" transform="translate(-5.88 219.5) rotate(-45)"/><rect class="cls-7" x="254.89" y="116.08" width="1.53" height="1.53" transform="translate(-7.75 214.99) rotate(-45)"/><rect class="cls-7" x="248.53" y="116.08" width="1.53" height="1.53" transform="translate(-9.61 210.5) rotate(-45)"/><rect class="cls-7" x="242.16" y="116.08" width="1.53" height="1.53" transform="translate(-11.47 206) rotate(-45)"/><rect class="cls-7" x="235.8" y="116.08" width="1.53" height="1.53" transform="translate(-13.33 201.51) rotate(-45)"/><rect class="cls-7" x="267.62" y="116.08" width="1.53" height="1.53" transform="translate(-4.01 224.01) rotate(-45)"/><rect class="cls-7" x="261.25" y="34.69" width="1.53" height="1.53" transform="translate(51.67 195.66) rotate(-45)"/><rect class="cls-7" x="254.89" y="34.69" width="1.53" height="1.53" transform="translate(49.8 191.15) rotate(-45)"/><rect class="cls-7" x="248.53" y="34.69" width="1.53" height="1.53" transform="translate(47.95 186.66) rotate(-45)"/><rect class="cls-7" x="242.16" y="34.69" width="1.53" height="1.53" transform="translate(46.08 182.16) rotate(-45)"/><rect class="cls-7" x="235.8" y="34.69" width="1.53" height="1.53" transform="translate(44.23 177.67) rotate(-45)"/><rect class="cls-7" x="267.62" y="34.69" width="1.53" height="1.53" transform="translate(53.55 200.17) rotate(-45)"/><rect class="cls-7" x="261.25" y="125.13" width="1.53" height="1.53" transform="translate(-12.28 222.15) rotate(-45)"/><rect class="cls-7" x="254.89" y="125.13" width="1.53" height="1.53" transform="translate(-14.14 217.64) rotate(-45)"/><rect class="cls-7" x="248.53" y="125.13" width="1.53" height="1.53" transform="translate(-16 213.15) rotate(-45)"/><rect class="cls-7" x="242.16" y="125.13" width="1.53" height="1.53" transform="translate(-17.87 208.65) rotate(-45)"/><rect class="cls-7" x="235.8" y="125.13" width="1.53" height="1.53" transform="translate(-19.73 204.16) rotate(-45)"/><rect class="cls-7" x="267.62" y="125.13" width="1.53" height="1.53" transform="translate(-10.41 226.66) rotate(-45)"/></g><g class="cls-6"><rect class="cls-7" x="81.71" y="204.4" width="1.53" height="1.53" transform="translate(-120.92 118.4) rotate(-45)"/><rect class="cls-7" x="81.71" y="198.04" width="1.53" height="1.53" transform="translate(-116.42 116.55) rotate(-45)"/><rect class="cls-7" x="81.71" y="191.68" width="1.53" height="1.53" transform="translate(-111.92 114.68) rotate(-45)"/><rect class="cls-7" x="81.71" y="185.31" width="1.53" height="1.53" transform="translate(-107.42 112.82) rotate(-45)"/><rect class="cls-7" x="81.71" y="178.95" width="1.53" height="1.53" transform="translate(-102.92 110.97) rotate(-45)"/><rect class="cls-7" x="81.71" y="210.77" width="1.53" height="1.53" transform="translate(-125.42 120.29) rotate(-45)"/><rect class="cls-7" x="72.67" y="204.4" width="1.53" height="1.53" transform="translate(-123.56 112.01) rotate(-45)"/><rect class="cls-7" x="72.67" y="198.04" width="1.53" height="1.53" transform="translate(-119.07 110.15) rotate(-45)"/><rect class="cls-7" x="72.67" y="191.68" width="1.53" height="1.53" transform="translate(-114.57 108.28) rotate(-45)"/><rect class="cls-7" x="72.67" y="185.31" width="1.53" height="1.53" transform="translate(-110.07 106.43) rotate(-45)"/><rect class="cls-7" x="72.67" y="178.95" width="1.53" height="1.53" transform="translate(-105.57 104.57) rotate(-45)"/><rect class="cls-7" x="72.67" y="210.77" width="1.53" height="1.53" transform="translate(-128.07 113.89) rotate(-45)"/><rect class="cls-7" x="63.62" y="204.4" width="1.53" height="1.53" transform="translate(-126.22 105.62) rotate(-45)"/><rect class="cls-7" x="63.62" y="198.04" width="1.53" height="1.53" transform="translate(-121.72 103.77) rotate(-45)"/><rect class="cls-7" x="63.62" y="191.68" width="1.53" height="1.53" transform="translate(-117.22 101.9) rotate(-45)"/><rect class="cls-7" x="63.62" y="185.31" width="1.53" height="1.53" transform="translate(-112.72 100.04) rotate(-45)"/><rect class="cls-7" x="63.62" y="178.95" width="1.53" height="1.53" transform="translate(-108.23 98.18) rotate(-45.01)"/><rect class="cls-7" x="63.62" y="210.77" width="1.53" height="1.53" transform="translate(-130.72 107.5) rotate(-45)"/><rect class="cls-7" x="54.58" y="204.4" width="1.53" height="1.53" transform="translate(-128.87 99.23) rotate(-45)"/><rect class="cls-7" x="54.58" y="198.04" width="1.53" height="1.53" transform="translate(-124.37 97.37) rotate(-45)"/><rect class="cls-7" x="54.58" y="191.68" width="1.53" height="1.53" transform="translate(-119.87 95.5) rotate(-45)"/><rect class="cls-7" x="54.58" y="185.31" width="1.53" height="1.53" transform="translate(-115.37 93.64) rotate(-45)"/><rect class="cls-7" x="54.58" y="178.95" width="1.53" height="1.53" transform="translate(-110.88 91.79) rotate(-45.01)"/><rect class="cls-7" x="54.58" y="210.77" width="1.53" height="1.53" transform="translate(-133.37 101.1) rotate(-45)"/><rect class="cls-7" x="45.54" y="204.4" width="1.53" height="1.53" transform="translate(-131.52 92.83) rotate(-45)"/><rect class="cls-7" x="45.54" y="198.04" width="1.53" height="1.53" transform="translate(-127.02 90.98) rotate(-45)"/><rect class="cls-7" x="45.54" y="191.68" width="1.53" height="1.53" transform="translate(-122.52 89.11) rotate(-45)"/><rect class="cls-7" x="45.54" y="185.31" width="1.53" height="1.53" transform="translate(-118.02 87.25) rotate(-45)"/><rect class="cls-7" x="45.54" y="178.95" width="1.53" height="1.53" transform="translate(-113.53 85.39) rotate(-45.01)"/><rect class="cls-7" x="45.54" y="210.77" width="1.53" height="1.53" transform="translate(-136.02 94.71) rotate(-45)"/><rect class="cls-7" x="36.49" y="204.4" width="1.53" height="1.53" transform="translate(-134.16 86.43) rotate(-45)"/><rect class="cls-7" x="36.49" y="198.04" width="1.53" height="1.53" transform="translate(-129.66 84.57) rotate(-45)"/><rect class="cls-7" x="36.49" y="191.68" width="1.53" height="1.53" transform="translate(-125.16 82.7) rotate(-45)"/><rect class="cls-7" x="36.49" y="185.31" width="1.53" height="1.53" transform="translate(-120.67 80.85) rotate(-45)"/><rect class="cls-7" x="36.49" y="178.95" width="1.53" height="1.53" transform="translate(-116.17 78.99) rotate(-45)"/><rect class="cls-7" x="36.49" y="210.77" width="1.53" height="1.53" transform="translate(-138.67 88.31) rotate(-45)"/><rect class="cls-7" x="27.45" y="204.4" width="1.53" height="1.53" transform="translate(-136.81 80.04) rotate(-45)"/><rect class="cls-7" x="27.45" y="198.04" width="1.53" height="1.53" transform="translate(-132.31 78.18) rotate(-45)"/><rect class="cls-7" x="27.45" y="191.68" width="1.53" height="1.53" transform="translate(-127.81 76.31) rotate(-45)"/><rect class="cls-7" x="27.45" y="185.31" width="1.53" height="1.53" transform="translate(-123.31 74.45) rotate(-45)"/><rect class="cls-7" x="27.45" y="178.95" width="1.53" height="1.53" transform="translate(-118.82 72.59) rotate(-45)"/><rect class="cls-7" x="27.45" y="210.77" width="1.53" height="1.53" transform="translate(-141.32 81.91) rotate(-45)"/><rect class="cls-7" x="18.4" y="204.4" width="1.53" height="1.53" transform="translate(-139.46 73.64) rotate(-45)"/><rect class="cls-7" x="18.4" y="198.04" width="1.53" height="1.53" transform="translate(-134.96 71.78) rotate(-45)"/><rect class="cls-7" x="18.4" y="191.68" width="1.53" height="1.53" transform="translate(-130.46 69.91) rotate(-45)"/><rect class="cls-7" x="18.4" y="185.31" width="1.53" height="1.53" transform="translate(-125.96 68.06) rotate(-45)"/><rect class="cls-7" x="18.4" y="178.95" width="1.53" height="1.53" transform="translate(-121.47 66.2) rotate(-45)"/><rect class="cls-7" x="18.4" y="210.77" width="1.53" height="1.53" transform="translate(-143.97 75.52) rotate(-45)"/><rect class="cls-7" x="9.36" y="204.4" width="1.53" height="1.53" transform="translate(-142.1 67.25) rotate(-45)"/><rect class="cls-7" x="9.36" y="198.04" width="1.53" height="1.53" transform="translate(-137.61 65.39) rotate(-45)"/><rect class="cls-7" x="9.36" y="191.68" width="1.53" height="1.53" transform="translate(-133.11 63.52) rotate(-45)"/><rect class="cls-7" x="9.36" y="185.31" width="1.53" height="1.53" transform="translate(-128.61 61.66) rotate(-45)"/><rect class="cls-7" x="9.36" y="178.95" width="1.53" height="1.53" transform="translate(-124.12 59.8) rotate(-45)"/><rect class="cls-7" x="9.36" y="210.77" width="1.53" height="1.53" transform="translate(-146.62 69.12) rotate(-45)"/><rect class="cls-7" x="90.75" y="204.4" width="1.53" height="1.53" transform="translate(-118.27 124.8) rotate(-45)"/><rect class="cls-7" x="90.75" y="198.04" width="1.53" height="1.53" transform="translate(-113.77 122.94) rotate(-45)"/><rect class="cls-7" x="90.75" y="191.68" width="1.53" height="1.53" transform="translate(-109.27 121.07) rotate(-45)"/><rect class="cls-7" x="90.75" y="185.31" width="1.53" height="1.53" transform="translate(-104.77 119.22) rotate(-45)"/><rect class="cls-7" x="90.75" y="178.95" width="1.53" height="1.53" transform="translate(-100.28 117.36) rotate(-45)"/><rect class="cls-7" x="90.75" y="210.77" width="1.53" height="1.53" transform="translate(-122.77 126.68) rotate(-45)"/><rect class="cls-7" x="0.32" y="204.4" width="1.53" height="1.53" transform="translate(-144.75 60.85) rotate(-45)"/><rect class="cls-7" x="0.32" y="198.04" width="1.53" height="1.53" transform="translate(-140.26 58.99) rotate(-45)"/><rect class="cls-7" x="0.32" y="191.68" width="1.53" height="1.53" transform="translate(-135.75 57.12) rotate(-45)"/><rect class="cls-7" x="0.32" y="185.31" width="1.53" height="1.53" transform="translate(-131.26 55.27) rotate(-45)"/><rect class="cls-7" x="0.32" y="178.95" width="1.53" height="1.53" transform="translate(-126.77 53.41) rotate(-45)"/><rect class="cls-7" x="0.32" y="210.77" width="1.53" height="1.53" transform="translate(-149.27 62.73) rotate(-45)"/></g><path class="cls-8" d="M148.16,80.55a219.61,219.61,0,0,0-57.84,0V66.39h57.84Z"/><polygon class="cls-8" points="119.24 75.47 76.59 62.04 119.24 46.91 165.01 61.19 119.24 75.47"/><rect class="cls-8" x="155.35" y="62.38" width="1.55" height="21.99"/><path class="cls-8" d="M158.62,86.08a2.49,2.49,0,1,1-2.49-2.49A2.49,2.49,0,0,1,158.62,86.08Z"/><polygon class="cls-8" points="206.69 48.96 179.14 49.27 203.77 65.18 204.3 57.72 208.94 55.17 187.49 50.52 206.14 52.63 207.42 51.24 209.58 48.91 206.69 48.96"/><path class="cls-9" d="M216.21,56.56l-.22.78c-.43-.13-.87-.24-1.3-.35l.2-.79Q215.55,56.37,216.21,56.56Z"/><polygon class="cls-9" points="212.51 55.63 213.84 55.94 213.65 56.73 212.33 56.42 212.51 55.63"/><polygon class="cls-9" points="210.12 55.13 211.46 55.4 211.29 56.19 209.97 55.93 210.12 55.13"/><polygon class="cls-9" points="221.62 59.16 221.91 58.4 223.18 58.91 222.87 59.66 221.62 59.16"/><path class="cls-9" d="M219.6,57.59c.43.14.86.28,1.29.44l-.27.76-1.28-.44Z"/><path class="cls-9" d="M218.57,57.25l-.24.78q-.65-.21-1.29-.39l.23-.78C217.7,57,218.14,57.11,218.57,57.25Z"/><path class="cls-9" d="M228.57,61.61c.38.26.78.5,1.15.76l-.46.67c-.36-.26-.75-.49-1.12-.74Z"/><path class="cls-9" d="M227.63,61.05l-.41.71c-.38-.23-.78-.43-1.18-.64l.38-.72C226.82,60.61,227.23,60.82,227.63,61.05Z"/><path class="cls-9" d="M223.87,60.09l.33-.75c.42.18.83.38,1.25.58l-.35.73C224.69,60.46,224.29,60.26,223.87,60.09Z"/><path class="cls-9" d="M233.3,67.17l.7-.41q.34.63.63,1.29l-.76.29C233.7,68,233.51,67.55,233.3,67.17Z"/><path class="cls-9" d="M231.88,65.28l.59-.55c.32.34.61.72.91,1.08l-.65.48C232.44,66,232.18,65.6,231.88,65.28Z"/><polygon class="cls-9" points="230.12 63.68 230.63 63.04 231.69 63.94 231.14 64.54 230.12 63.68"/><path class="cls-9" d="M234.53,74.24c-.18.43-.39.86-.58,1.28l-.72-.37c.18-.4.37-.8.54-1.2Z"/><path class="cls-9" d="M234.32,71.67l.81.07-.11.71a4.27,4.27,0,0,1-.15.71l-.79-.21a3.31,3.31,0,0,0,.14-.64Z"/><path class="cls-9" d="M234.28,70l-.1-.64.79-.18.11.71a2.93,2.93,0,0,1,.07.72l-.81,0A2.86,2.86,0,0,0,234.28,70Z"/><path class="cls-9" d="M230.24,80.35c-.34.32-.66.65-1,.94l-.54-.61c.35-.28.66-.6,1-.91Z"/><polygon class="cls-9" points="231.93 78.53 231.01 79.57 230.42 79.02 231.31 78.02 231.93 78.53"/><polygon class="cls-9" points="232.69 76.08 233.38 76.5 233.01 77.1 232.6 77.66 231.94 77.18 232.34 76.65 232.69 76.08"/><polygon class="cls-9" points="224.39 84.88 223.23 85.6 222.81 84.91 223.95 84.19 224.39 84.88"/><polygon class="cls-9" points="226.43 83.51 225.3 84.28 224.85 83.61 225.96 82.85 226.43 83.51"/><path class="cls-9" d="M228.38,82c-.34.31-.72.57-1.08.85l-.49-.65c.35-.27.72-.53,1.06-.82Z"/><polygon class="cls-9" points="217.59 87.7 217.94 88.43 216.71 89.01 216.37 88.27 217.59 87.7"/><path class="cls-9" d="M220.13,87.33c-.4.22-.81.41-1.22.62l-.36-.73c.4-.2.81-.39,1.2-.61Z"/><path class="cls-9" d="M222.27,86.15c-.39.23-.79.46-1.19.67l-.39-.71c.4-.21.79-.44,1.18-.66Z"/><polygon class="cls-9" points="210.91 90.59 211.21 91.34 209.94 91.84 209.65 91.08 210.91 90.59"/><polygon class="cls-9" points="213.16 89.68 213.47 90.43 212.21 90.95 211.91 90.2 213.16 89.68"/><polygon class="cls-9" points="215.38 88.73 215.71 89.47 214.46 90.01 214.14 89.27 215.38 88.73"/><polygon class="cls-9" points="204.05 93.05 204.31 93.82 203.01 94.23 202.77 93.46 204.05 93.05"/><polygon class="cls-9" points="206.35 92.27 206.62 93.04 205.33 93.47 205.07 92.71 206.35 92.27"/><polygon class="cls-9" points="208.63 91.46 208.91 92.22 207.63 92.68 207.36 91.92 208.63 91.46"/><polygon class="cls-9" points="197.08 95.15 197.29 95.93 195.98 96.29 195.77 95.51 197.08 95.15"/><polygon class="cls-9" points="199.41 94.48 199.64 95.26 198.33 95.64 198.11 94.86 199.41 94.48"/><polygon class="cls-9" points="201.72 93.79 201.97 94.56 200.66 94.96 200.43 94.18 201.72 93.79"/><polygon class="cls-9" points="188.69 97.23 190.01 96.94 190.19 97.73 188.86 98.03 188.69 97.23"/><polygon class="cls-9" points="192.37 96.38 192.56 97.17 191.24 97.49 191.06 96.7 192.37 96.38"/><polygon class="cls-9" points="194.72 95.79 194.92 96.57 193.6 96.91 193.41 96.12 194.72 95.79"/><path class="cls-8" d="M46,162.61a11.51,11.51,0,0,1-1.78-2.52,6.3,6.3,0,0,1,.05-4.24c.43-1.38,1.08-2.68,1.45-4.07a10.84,10.84,0,0,0-2.43-9.92,15.33,15.33,0,0,1-1.56-1.76,7.55,7.55,0,0,1-.75-5.3,26.18,26.18,0,0,0,.67-5.42,8.12,8.12,0,0,0-2.91-5.72,9.78,9.78,0,0,0-6.07-1.89h-.13a9.74,9.74,0,0,0-6.09,1.82,8.17,8.17,0,0,0-3,5.69,26.35,26.35,0,0,0,.61,5.43,7.48,7.48,0,0,1-.81,5.29,14.43,14.43,0,0,1-1.58,1.74,10.87,10.87,0,0,0-2.54,9.89c.36,1.39,1,2.71,1.4,4.09a6.3,6.3,0,0,1,0,4.24,11.54,11.54,0,0,1-1.81,2.5c-2.41,3-3.44,7.43-1.36,10.64a10.94,10.94,0,0,0,3.35,3.07A20,20,0,0,0,27.27,179a6.61,6.61,0,0,0,3.09.17,7.3,7.3,0,0,1,1.93-.07,6.86,6.86,0,0,1,1.93.09,6.78,6.78,0,0,0,3.1-.13,20,20,0,0,0,6.54-2.74,11,11,0,0,0,3.39-3C49.37,170.08,48.38,165.61,46,162.61Z"/><path class="cls-10" d="M43.37,159.51l-10,10.71L33,149.16l7.5-10L33,147.25l-.21-12.79,5.41-7.21-5.44,5.83-.15-9-.18,11.53-5.2-5.7L32.4,137l-.2,13-7.44-8.15,7.41,10.1-.34,21.32L21.67,162.12l10.12,13.79-.05,3.14h1.79l-.11-6.3Z"/><rect class="cls-10" x="31.76" y="179.05" width="1.79" height="3.44"/><polygon class="cls-11" points="24.72 182.54 40.6 182.54 37.62 195.09 27.73 195.09 24.72 182.54"/><rect class="cls-12" x="24.72" y="181.58" width="15.88" height="0.95"/><polygon class="cls-7" points="53.95 53.1 57.73 55.16 53.95 57.23 51.88 61.01 49.81 57.23 46.04 55.16 49.81 53.1 51.88 49.32 53.95 53.1"/><polygon class="cls-7" points="63.1 59.81 65.29 61.01 63.1 62.21 61.91 64.39 60.71 62.21 58.52 61.01 60.71 59.81 61.91 57.63 63.1 59.81"/><polygon class="cls-7" points="166.29 35.62 162.51 37.69 166.29 39.75 168.35 43.53 170.42 39.75 174.2 37.69 170.42 35.62 168.35 31.84 166.29 35.62"/><polygon class="cls-7" points="157.13 42.33 154.94 43.53 157.13 44.73 158.33 46.91 159.53 44.73 161.71 43.53 159.53 42.33 158.33 40.15 157.13 42.33"/><path class="cls-8" d="M266.82,165.9c.92,1.7,2.9.51,2.9.51s-.11-.56-1-1a2.73,2.73,0,0,0-2,.06l-1.09,0h0l-.73.06c3.13-1.1,1.66-4.79,1.66-4.79a3,3,0,0,0-2,1.42c-.84,1.11-.51,3-.41,3.46a18.62,18.62,0,0,0-3.6.91A4.36,4.36,0,0,0,261,166c1.19-1.42.67-4.13.67-4.13-4.26.55-3.41,4.56-3.16,5.48a26.26,26.26,0,0,0-3.85,2.29,5.64,5.64,0,0,0,.84-1.85c.53-2-1.27-4.51-1.27-4.51-4.18,2.63-1.17,6.43-.58,7.11-.75.58-1.44,1.16-2.06,1.72s-1.31,1.23-1.87,1.82a5.69,5.69,0,0,0,.21-2.71c-.3-2.25-3.17-4-3.17-4-3,4.31,1.31,6.87,2.33,7.39a38.16,38.16,0,0,0-3.07,3.77l.38.25s.74-1.09,2-2.61c1.62,5.11,7.17,2.51,7.17,2.51s-.14-1.39-2.2-2.76c-1.32-.88-3.3-.65-4.36-.43a38.19,38.19,0,0,1,2.85-2.88c.37-.33.75-.66,1.16-1,1.43,4.82,6.59,2.41,6.59,2.41a4,4,0,0,0-2-2.53,5.64,5.64,0,0,0-3.92-.41,27.73,27.73,0,0,1,4-2.67c.88,4.56,5.73,2.72,5.73,2.72a3.55,3.55,0,0,0-1.62-2.38,5.13,5.13,0,0,0-3.57-.62,19.46,19.46,0,0,1,5.22-1.82c-.08,4.14,4.4,3.34,4.4,3.34a3,3,0,0,0-1-2.27,4.77,4.77,0,0,0-3.26-1.09,14.6,14.6,0,0,1,2-.23Z"/><path class="cls-11" d="M230.65,190.48s-9.29-21-2.57-40.47,23-25.19,23-25.19-9.63,11.16-4,28.57c5.29,16.46-4.8,37.09-4.8,37.09Z"/><path class="cls-12" d="M233.94,190.48s-2.38-42.68,7.69-53.9c-9.16,14.15-5.35,53.9-5.35,53.9Z"/><path class="cls-13" d="M249.9,190.48H240a26.21,26.21,0,0,1,5.4-11,12.65,12.65,0,0,1,9.8-4.38,16.09,16.09,0,0,0-3.43,9.12A17.88,17.88,0,0,1,249.9,190.48Z"/><path class="cls-13" d="M226.92,167.27c7.23,9.44,8.86,21.74,9,23.21H221.88c-3.56-3.29-7.92-8.6-8-15-.06-11.41-5.35-18.18-5.35-18.18A24.74,24.74,0,0,1,226.92,167.27Z"/><path class="cls-14" d="M243.18,190.48h-.74c1.41-3.24,5-10.84,8.4-12.38C247.54,180.32,244.5,187.19,243.18,190.48Z"/><path class="cls-14" d="M231.5,190.48H230c-1.71-5.67-6.95-21.44-13.55-26.65C223.31,167.61,229.69,185.12,231.5,190.48Z"/><rect class="cls-13" x="213.75" y="190.48" width="41.94" height="1.66" transform="translate(469.44 382.62) rotate(180)"/><circle class="cls-15" cx="190.56" cy="107.01" r="15.94"/><circle class="cls-7" cx="190.56" cy="107.01" r="12.87"/><circle class="cls-15" cx="190.56" cy="107.01" r="9.73"/><circle class="cls-7" cx="190.56" cy="107.01" r="6.02"/><path class="cls-15" d="M193,107a2.44,2.44,0,1,1-2.44-2.44A2.44,2.44,0,0,1,193,107Z"/><polygon class="cls-8" points="211.19 87.09 211.04 83.37 207.24 87.18 207.5 90.08 193.64 103.94 192.27 102.58 190.76 107.15 195.57 105.88 194.12 104.42 207.88 90.66 210.59 91.05 214.81 86.83 211.19 87.09"/><polygon class="cls-8" points="54.75 77.47 45.16 83.66 54.75 90.25 64.34 83.66 54.75 77.47"/><rect class="cls-11" x="48.41" y="79.6" width="12.21" height="12.21"/><polygon points="70.17 85.13 70.17 85.13 70.17 85.13 70.17 85.13"/><polygon points="44.29 85.13 44.29 85.13 44.29 85.13 44.29 85.13"/><path class="cls-8" d="M54.75,91.45,44.29,84.26V96.55A1.49,1.49,0,0,0,45.78,98H63.72a1.49,1.49,0,0,0,1.49-1.49V84.26Z"/><path class="cls-16" d="M84,131.39a5.83,5.83,0,1,1-5.83-5.83A5.83,5.83,0,0,1,84,131.39Z"/><path class="cls-17" d="M77.59,133.19a.81.81,0,0,1,0,.17s0,.09,0,.12a.25.25,0,0,1,0,.09l-.06.08-.17.12a2.33,2.33,0,0,1-.31.14,3.44,3.44,0,0,1-.41.11,2.78,2.78,0,0,1-.51,0,2.69,2.69,0,0,1-1-.16,2,2,0,0,1-.73-.49,2.25,2.25,0,0,1-.46-.82,3.8,3.8,0,0,1-.16-1.13,3.61,3.61,0,0,1,.18-1.18,2.58,2.58,0,0,1,.49-.86,2,2,0,0,1,.76-.52,2.54,2.54,0,0,1,1-.18,2.77,2.77,0,0,1,.42,0,3.29,3.29,0,0,1,.37.1,1.36,1.36,0,0,1,.3.13.55.55,0,0,1,.19.13l.08.09a.46.46,0,0,1,0,.09s0,.08,0,.13v.4a1.3,1.3,0,0,1,0,.13.16.16,0,0,1-.05.08l-.06,0a.3.3,0,0,1-.16-.07l-.23-.15a2.29,2.29,0,0,0-.35-.16,1.43,1.43,0,0,0-.48-.07,1.09,1.09,0,0,0-.55.13,1.19,1.19,0,0,0-.42.36,1.7,1.7,0,0,0-.25.56,2.86,2.86,0,0,0-.09.75,3.07,3.07,0,0,0,.09.79,1.57,1.57,0,0,0,.27.55,1.18,1.18,0,0,0,.42.32,1.38,1.38,0,0,0,.55.11,1.45,1.45,0,0,0,.49-.07,2.32,2.32,0,0,0,.35-.14,2.08,2.08,0,0,0,.24-.15.3.3,0,0,1,.14-.06h.07a.43.43,0,0,1,0,.07.44.44,0,0,1,0,.13A1.55,1.55,0,0,1,77.59,133.19Z"/><path class="cls-17" d="M80.92,133.79a.28.28,0,0,1,0,.11.2.2,0,0,1-.1.07l-.2,0h-.79a.42.42,0,0,1-.13,0l-.08,0s0,0-.06,0a.94.94,0,0,1,0-.09l-1.54-4.59a1.58,1.58,0,0,1-.06-.23.13.13,0,0,1,0-.12.25.25,0,0,1,.17-.05h.63l.16,0a.11.11,0,0,1,.07.06l0,.1,1.26,4h0l1.24-4a.36.36,0,0,1,0-.11.1.1,0,0,1,.08-.06l.16,0h.59a.2.2,0,0,1,.14.06.17.17,0,0,1,0,.13,1.94,1.94,0,0,1-.06.22Z"/><path class="cls-7" d="M50.69,106.9a15.64,15.64,0,0,0-12.8,6.66l1.16,1.16a14,14,0,0,1,23.27,0l1.16-1.16A15.63,15.63,0,0,0,50.69,106.9Z"/><path class="cls-7" d="M50.69,109.68a12.85,12.85,0,0,0-10.8,5.88L41,116.69a11.29,11.29,0,0,1,19.33,0l1.13-1.13A12.83,12.83,0,0,0,50.69,109.68Z"/><path class="cls-7" d="M50.69,112.91a9.63,9.63,0,0,0-8.44,5L43.36,119A8.12,8.12,0,0,1,58,119l1.11-1.11A9.62,9.62,0,0,0,50.69,112.91Z"/><path class="cls-7" d="M50.69,116.38a6.15,6.15,0,0,0-5.82,4.16l1.53,1.53a4.31,4.31,0,0,1,8.57,0l1.53-1.53A6.15,6.15,0,0,0,50.69,116.38Z"/><path class="cls-7" d="M50.69,120.41a2.12,2.12,0,1,0,2.11,2.12A2.12,2.12,0,0,0,50.69,120.41Z"/><path class="cls-7" d="M77.38,109.82h74.2a0,0,0,0,1,0,0v17.63a0,0,0,0,1,0,0H77.38a5.3,5.3,0,0,1-5.3-5.3v-7A5.3,5.3,0,0,1,77.38,109.82Z"/><path class="cls-18" d="M154.33,127.45H75.2a2.61,2.61,0,0,1-2.49-2.73v-11.6a2.61,2.61,0,0,1,2.49-2.73h79.13v-1.66H75.2a4.22,4.22,0,0,0-4,4.39v11.6a4.22,4.22,0,0,0,4,4.39h79.13Z"/><polygon class="cls-18" points="84.11 126.33 80.4 121.25 76.69 126.33 76.69 113.2 84.11 113.2 84.11 126.33"/><path class="cls-7" d="M165.4,107.06H77.18a5,5,0,0,1-5-5h0a5,5,0,0,1,5-4.95H165.4Z"/><path class="cls-11" d="M168.64,107.06H75.89A2.83,2.83,0,0,1,73,104.34v-3.9a2.83,2.83,0,0,1,2.92-2.72h92.75V96.05H75.89a4.56,4.56,0,0,0-4.71,4.39v3.9a4.56,4.56,0,0,0,4.71,4.39h92.75Z"/><path class="cls-7" d="M87.63,81.84h58.78a0,0,0,0,1,0,0v13a0,0,0,0,1,0,0H87.63a5.31,5.31,0,0,1-5.31-5.31V87.14A5.3,5.3,0,0,1,87.63,81.84Z"/><path class="cls-18" d="M148.64,94.83H84.84a2,2,0,0,1-2-2V84.27a2,2,0,0,1,2-2h63.8V81H84.84a3.24,3.24,0,0,0-3.23,3.24v8.55a3.23,3.23,0,0,0,3.23,3.23h63.8Z"/><rect class="cls-18" x="82.71" y="81.84" width="29.76" height="13.46"/><polygon class="cls-19" points="92.03 94 89.04 90.26 86.05 94 86.05 84.33 92.03 84.33 92.03 94"/><rect class="cls-18" x="75.21" y="112.88" width="11.74" height="0.31"/><path class="cls-7" d="M79.88,159.27h85.37a0,0,0,0,1,0,0v18.37a0,0,0,0,1,0,0H79.88a5.31,5.31,0,0,1-5.31-5.31v-7.76A5.31,5.31,0,0,1,79.88,159.27Z" transform="translate(239.82 336.92) rotate(180)"/><path class="cls-8" d="M71.42,177.65h90.26a2.84,2.84,0,0,0,2.84-2.84v-12.1a2.84,2.84,0,0,0-2.84-2.84H71.42v-1.74h90.26a4.59,4.59,0,0,1,4.58,4.58v12.1a4.58,4.58,0,0,1-4.58,4.57H71.42Z"/><rect class="cls-8" x="122.6" y="159.27" width="42.1" height="19.05" transform="translate(287.29 337.59) rotate(180)"/><polygon class="cls-19" points="151.51 176.48 155.75 171.19 159.98 176.48 159.98 162.8 151.51 162.8 151.51 176.48"/><path class="cls-7" d="M77.16,130.66H184.33a0,0,0,0,1,0,0V155.6a0,0,0,0,1,0,0H77.16a5.3,5.3,0,0,1-5.3-5.3V136A5.3,5.3,0,0,1,77.16,130.66Z"/><path class="cls-20" d="M188.24,155.6h-112a3.7,3.7,0,0,1-3.52-3.85V135.32a3.7,3.7,0,0,1,3.52-3.85h112v-2.36h-112a6,6,0,0,0-5.67,6.21v16.43A6,6,0,0,0,76.27,158h112Z"/><polygon class="cls-20" points="88.89 154.01 83.64 146.83 78.39 154.01 78.39 135.44 88.89 135.44 88.89 154.01"/><rect class="cls-20" x="76.29" y="134.99" width="16.61" height="0.43"/><path class="cls-19" d="M73.48,180.6H200a0,0,0,0,1,0,0v14a0,0,0,0,1,0,0H73.48a5.3,5.3,0,0,1-5.3-5.3v-3.42A5.31,5.31,0,0,1,73.48,180.6Z" transform="translate(268.19 375.24) rotate(180)"/><path class="cls-21" d="M63.6,194.63H194.83a4,4,0,0,0,4.12-3.85v-5.51a4,4,0,0,0-4.12-3.86H63.6v-2.35H194.83a6.45,6.45,0,0,1,6.65,6.21v5.51a6.46,6.46,0,0,1-6.65,6.21H63.6Z"/><rect class="cls-7" x="94.5" y="137.02" width="86.22" height="0.43"/><rect class="cls-7" x="94.5" y="138.8" width="86.22" height="0.43"/><rect class="cls-7" x="94.5" y="140.58" width="86.22" height="0.43"/><rect class="cls-7" x="94.5" y="142.36" width="86.22" height="0.43"/><rect class="cls-7" x="94.5" y="144.14" width="86.22" height="0.43"/><rect class="cls-7" x="94.5" y="145.92" width="86.22" height="0.43"/><rect class="cls-7" x="94.5" y="147.7" width="86.22" height="0.43"/><rect class="cls-7" x="94.5" y="149.48" width="86.22" height="0.43"/><rect class="cls-7" x="94.5" y="135.24" width="86.22" height="0.43"/><rect class="cls-7" x="94.5" y="151.26" width="86.22" height="0.43"/><rect class="cls-7" x="69.65" y="183.58" width="127.68" height="0.3"/><rect class="cls-7" x="69.65" y="184.83" width="127.68" height="0.3"/><rect class="cls-7" x="69.65" y="186.08" width="127.68" height="0.3"/><rect class="cls-7" x="69.65" y="187.32" width="127.68" height="0.3"/><rect class="cls-7" x="69.65" y="188.57" width="127.68" height="0.3"/><rect class="cls-7" x="69.65" y="189.82" width="127.68" height="0.3"/><rect class="cls-7" x="69.65" y="191.07" width="127.68" height="0.3"/><rect class="cls-7" x="69.65" y="192.32" width="127.68" height="0.3"/><rect class="cls-7" x="69.65" y="182.33" width="127.68" height="0.3"/><rect class="cls-7" x="69.65" y="193.57" width="127.68" height="0.3"/><rect class="cls-19" x="87.67" y="114.32" width="63.17" height="0.35"/><rect class="cls-19" x="87.67" y="115.77" width="63.17" height="0.35"/><rect class="cls-19" x="87.67" y="117.22" width="63.17" height="0.35"/><rect class="cls-19" x="87.67" y="118.68" width="63.17" height="0.35"/><rect class="cls-19" x="87.67" y="120.13" width="63.17" height="0.35"/><rect class="cls-19" x="87.67" y="121.59" width="63.17" height="0.35"/><rect class="cls-19" x="87.67" y="123.04" width="63.17" height="0.35"/><rect class="cls-19" x="87.67" y="124.5" width="63.17" height="0.35"/><rect class="cls-19" x="87.67" y="112.86" width="63.17" height="0.35"/><rect class="cls-19" x="87.67" y="125.95" width="63.17" height="0.35"/><rect class="cls-7" x="74.45" y="99.18" width="90.13" height="0.2"/><rect class="cls-7" x="74.45" y="100" width="90.13" height="0.2"/><rect class="cls-7" x="74.45" y="100.83" width="90.13" height="0.2"/><rect class="cls-7" x="74.45" y="101.65" width="90.13" height="0.2"/><rect class="cls-7" x="74.45" y="102.48" width="90.13" height="0.2"/><rect class="cls-7" x="74.45" y="103.3" width="90.13" height="0.2"/><rect class="cls-7" x="74.45" y="104.13" width="90.13" height="0.2"/><rect class="cls-7" x="74.45" y="104.95" width="90.13" height="0.2"/><rect class="cls-7" x="74.45" y="98.35" width="90.13" height="0.2"/><rect class="cls-7" x="74.45" y="105.78" width="90.13" height="0.2"/><rect class="cls-22" x="76.29" y="162.02" width="46.1" height="0.43"/><rect class="cls-22" x="76.29" y="163.8" width="46.1" height="0.43"/><rect class="cls-22" x="76.29" y="165.58" width="46.1" height="0.43"/><rect class="cls-22" x="76.29" y="167.35" width="46.1" height="0.43"/><rect class="cls-22" x="76.29" y="169.13" width="46.1" height="0.43"/><rect class="cls-22" x="76.29" y="170.91" width="46.1" height="0.43"/><rect class="cls-22" x="76.29" y="172.69" width="46.1" height="0.43"/><rect class="cls-22" x="76.29" y="174.47" width="46.1" height="0.43"/><rect class="cls-22" x="76.29" y="160.24" width="46.1" height="0.43"/><rect class="cls-22" x="76.29" y="176.25" width="46.1" height="0.43"/><rect class="cls-19" x="112.47" y="83.83" width="33.94" height="0.31"/><rect class="cls-19" x="112.47" y="85.08" width="33.94" height="0.31"/><rect class="cls-19" x="112.47" y="86.34" width="33.94" height="0.31"/><rect class="cls-19" x="112.47" y="87.6" width="33.94" height="0.31"/><rect class="cls-19" x="112.47" y="88.86" width="33.94" height="0.31"/><rect class="cls-19" x="112.47" y="90.12" width="33.94" height="0.31"/><rect class="cls-19" x="112.47" y="91.38" width="33.94" height="0.31"/><rect class="cls-19" x="112.47" y="92.64" width="33.94" height="0.31"/><rect class="cls-19" x="112.47" y="82.57" width="33.94" height="0.31"/><rect class="cls-19" x="112.47" y="93.9" width="33.94" height="0.31"/><path class="cls-23" d="M201.47,125.27a3,3,0,0,1,.13-2.58,2.53,2.53,0,0,1,2.18-1.31,1.21,1.21,0,0,1,.59.13,1.94,1.94,0,0,1,.36.34,5.13,5.13,0,0,0,1.85,1.31,22.92,22.92,0,0,0,2.73.75,2,2,0,0,1,1.6,2.8c-.15.67-.15,1.36-.27,2-.09.53-.07.54-.16,1.17a4.31,4.31,0,0,1-.55,1.5c-.15.29-.22,1.34-.55,1.37s-.16-.81-.29-1a1.49,1.49,0,0,1-.25-.61c-.27-1.07-.31-2.27-1-3.1a2.43,2.43,0,0,0-1.58-.81c-.66-.07-1.25.37-1.87.29A4,4,0,0,1,201.47,125.27Z"/><rect class="cls-24" x="205.45" y="130.29" width="3.61" height="4.76"/><path class="cls-24" d="M203.53,127.37s-.2,4.73,1.23,5.47,3.33-.46,4-1a4.17,4.17,0,0,0,1.05-1.58,2.91,2.91,0,0,0,.47-1.32c0-.57-.05-1.3-.57-.94-.83.57-.44.14-.44.14a1.15,1.15,0,0,0-.32-1.28C208.31,126.21,203.55,124.8,203.53,127.37Z"/><path class="cls-24" d="M212.06,196.72l0,1.54,2.07,0,0-1.55Z"/><path d="M211.56,197.73,207,200.1l-.5.13a.8.8,0,0,0-.62.76.83.83,0,0,0,0,.25c.05.06,8.63-.17,8.63-.17s.15-2.76-.31-2.86S212.27,198.51,211.56,197.73Z"/><polygon class="cls-7" points="209.02 199.06 209.44 199.78 209.16 199.94 208.74 199.21 209.02 199.06"/><polygon class="cls-7" points="208.53 199.32 208.93 200.01 208.65 200.17 208.25 199.47 208.53 199.32"/><polygon class="cls-7" points="208.06 199.57 208.44 200.23 208.17 200.39 207.78 199.72 208.06 199.57"/><path class="cls-24" d="M201.5,196.68l-.15,1.55,2.07,0,.09-1.54Z"/><path d="M200.83,197.69,196.28,200l-.5.13a.79.79,0,0,0-.63.75.83.83,0,0,0,0,.25c0,.06,8.63-.07,8.63-.07s.18-2.76-.28-2.87S201.53,198.48,200.83,197.69Z"/><polygon class="cls-7" points="198.27 198.99 198.68 199.72 198.41 199.88 197.99 199.14 198.27 198.99"/><polygon class="cls-7" points="197.78 199.25 198.17 199.94 197.89 200.1 197.49 199.39 197.78 199.25"/><polygon class="cls-7" points="197.31 199.49 197.68 200.16 197.41 200.31 197.03 199.63 197.31 199.49"/><polygon class="cls-18" points="201.43 159.02 200.68 196.91 203.61 196.81 209.04 159.06 201.43 159.02"/><polygon class="cls-18" points="205.66 159.83 211.03 196.91 214.44 196.91 214.39 159.08 205.34 159.05 205.66 159.83"/><path class="cls-24" d="M190.66,135.92a3.22,3.22,0,0,1-.57-1.14c-.11-.56-.4-2.08-.68-1.7s.12,1.19-.34.88-1.27-2.13-1.53-1.78a1.93,1.93,0,0,0-.07,2.28,3.78,3.78,0,0,0,1.42,1.57,12.51,12.51,0,0,1,1,1Z"/><path class="cls-8" d="M201.07,135.78l-4.44,3.62a.26.26,0,0,1-.45,0l-5.74-3.93-1.2,1.48,7.44,7a.15.15,0,0,0,.23,0l4.59-3.5Z"/><path class="cls-15" d="M201.07,135.78l2.27-.85,2.11-.82a2.85,2.85,0,0,0,3.61-.22l2,.79,4.17,1.64-.83,22.76H211v0h-7.75V159l-1.84,0Z"/><rect class="cls-25" x="199.98" y="137.3" width="7.17" height="12.39"/><path class="cls-24" d="M208.35,145.31a.48.48,0,0,1-.49-.41c-.12-.44-.53-1.16-.63-.85s-1.5-.51-1.64.2-.07,1.71.37,2,1.9.95,1.9.95Z"/><path class="cls-8" d="M215.22,136.32s3.23,8.26,3.07,10.6-10.3.73-10.3.73-.59-1-.18-1.64a3.08,3.08,0,0,1,.68-.86l6.13.15S210.8,134.41,215.22,136.32Z"/><path class="cls-18" d="M54.46,168.17s-6.12,9.32-5.23,11.49,4.27,5.46,4.27,5.46l2.53-1s-2.29-3.8-2.1-4.58,2.42-5.17,2.42-5.17Z"/><path class="cls-18" d="M70.13,168.13s6,9.3,5.08,11.45-4.12,5.4-4.12,5.4L68.55,184s2-4.24,2.14-4.64c.24-.77-2.45-5-2.45-5Z"/><path class="cls-18" d="M70.22,168.3c-.45-.92-6.28-2.16-6.28-2.16a10.16,10.16,0,0,1-1.07,1.14,13.09,13.09,0,0,0-.58,2.08,12.73,12.73,0,0,0-.59-2.08,9.62,9.62,0,0,1-1.08-1s-5.82,1.11-6.26,2,.67,20.23,1.3,20.61,3.48,1.1,4.37,1.59a3.6,3.6,0,0,0,2.3,0,3.73,3.73,0,0,0,1.91-.66c.89-.49,4.05-1.21,4.68-1.59S70.67,169.22,70.22,168.3Z"/><path class="cls-11" d="M51.85,184.27s-3.19-1.34-4.79-.66-2.78,3.47-1.13,5.15,15.26,6.78,16.44,7.14a21.48,21.48,0,0,0,4.13.33l.64-2.51S56.81,186.45,51.85,184.27Z"/><path class="cls-11" d="M71.87,184.27s3.19-1.34,4.79-.66,2.78,3.47,1.13,5.15-15.26,6.78-16.44,7.14a21.48,21.48,0,0,1-4.13.33l-.64-2.51S66.91,186.45,71.87,184.27Z"/><path d="M52,192.22a2.16,2.16,0,0,0-1.07-.47c-.49,0-.81.58-1.07,1.41s-.39,3.42-.07,3.67,1.51.09,1.51.09Z"/><path class="cls-18" d="M57.15,196a19.83,19.83,0,0,0-4,.17c-.73.3-1.87,1.16-2.15.53s0-5,1.05-4.46c.59.28,1.46.64,2.26,1a9.15,9.15,0,0,0,2.3.49Z"/><path d="M71.64,192.22a2.16,2.16,0,0,1,1.07-.47c.5,0,.82.58,1.08,1.41s.38,3.42.06,3.67-1.5.09-1.5.09Z"/><path class="cls-18" d="M66.51,196a19.93,19.93,0,0,1,4,.17c.72.3,1.86,1.16,2.14.53s0-5-1-4.46c-.58.28-1.46.64-2.25,1a9.28,9.28,0,0,1-2.31.49Z"/><path class="cls-25" d="M71,188.28H52.49a.69.69,0,0,1-.7-.65l-.66-10.07a.71.71,0,0,1,.7-.75H71.67a.7.7,0,0,1,.7.75l-.63,10.06A.69.69,0,0,1,71,188.28Z"/><path class="cls-24" d="M66.42,163.43a.39.39,0,0,0-.16-.29l-.12,0a.94.94,0,0,0-.52.29v-.34c.08-1.72-3.3-1.62-3.33-1.62s-3.41-.1-3.34,1.62c0,0,0,.13,0,.34a1,1,0,0,0-.52-.29l-.12,0c-.11.05-.14.18-.16.29a3.12,3.12,0,0,0,0,1.14,1.83,1.83,0,0,0,.54,1,1,1,0,0,0,.35.21,5.83,5.83,0,0,0,.16,1.09c.25.74,1.75,2.39,3.07,2.45h0c1.32-.06,2.81-1.71,3.06-2.45a5,5,0,0,0,.17-1.09.92.92,0,0,0,.34-.21,1.83,1.83,0,0,0,.54-1A3.12,3.12,0,0,0,66.42,163.43Z"/><path d="M66.29,163.22c0-.3.07-.69.11-1a3,3,0,0,0,0-.95,3,3,0,0,0-.22-.63,4,4,0,0,0-.82-1.3,3.63,3.63,0,0,0-2.08-.77,27.52,27.52,0,0,1-4-.39,2.7,2.7,0,0,1-1-.61c-.18-.15-.39-.33-.61-.26a.53.53,0,0,0-.3.51,6,6,0,0,0,.33,1.44c.06.28.06.57.12.85a1.09,1.09,0,0,0,.44.7l-.54-.29a2.26,2.26,0,0,0,.46,1c.07.08.13.23,0,.27s0,0-.07,0a.11.11,0,0,0,0,.12,14,14,0,0,0,.66,1.28c.08.14,0,.24.18.23a.73.73,0,0,0,.49-.21,1.92,1.92,0,0,1,1.19-1,2.56,2.56,0,0,1,.73,0,4,4,0,0,0,1.19,0,3,3,0,0,1,.9-.09,2,2,0,0,1,.87.4,10.52,10.52,0,0,1,.93.72.37.37,0,0,0,.17.1.43.43,0,0,0,.37-.16C66,163.17,66.25,163.08,66.29,163.22Z"/><path class="cls-11" d="M185.31,71.51V69.43H170.08v2.08H165.9v1.11a7.9,7.9,0,0,0,5.33,7.46,7.39,7.39,0,0,0,5.06,3.33v2h-1a1.87,1.87,0,0,0-1.87,1.87h-2.17v.93h12.88v-.93H182a1.87,1.87,0,0,0-1.87-1.87h-1v-2a7.39,7.39,0,0,0,5.06-3.33,7.9,7.9,0,0,0,5.33-7.46V71.51Zm-18.46,1.11v-.16h3.23v3.65a7.39,7.39,0,0,0,.49,2.66A6.94,6.94,0,0,1,166.85,72.62Zm21.69,0a7,7,0,0,1-3.73,6.15,7.4,7.4,0,0,0,.5-2.66V72.46h3.23Z"/><path class="cls-7" d="M177.69,72.76l.65,1.32.23.46.5.07,1.46.21-1.05,1-.37.36.09.5.25,1.45-1.31-.68-.45-.24-.45.24-1.3.68.24-1.45.09-.5-.36-.36-1.06-1,1.46-.21.5-.07.23-.46.65-1.32m0-2.19-1.52,3.08-3.4.5,2.46,2.4-.58,3.39,3-1.6,3.05,1.6-.59-3.39,2.47-2.4-3.41-.5-1.52-3.08Z"/></g></g></svg>