<svg xmlns="http://www.w3.org/2000/svg" viewBox="0 0 819.28 627.56"><defs><style>.cls-1{fill:#f4a07b;}.cls-2{fill:#9d604a;}.cls-3{fill:#9ac3e8;}.cls-4{fill:#2a3343;}.cls-5{fill:#0f5493;}.cls-6{fill:#086bd1;}.cls-7{fill:#fcead1;}.cls-8{fill:#ead9c5;}.cls-9{fill:#fff;opacity:0.88;}.cls-10{fill:#273c4d;}.cls-11{fill:#c9890a;}.cls-12{fill:#ffb507;}.cls-13{fill:#9e690b;}</style></defs><g id="Layer_2" data-name="Layer 2"><g id="Layer_1-2" data-name="Layer 1"><path class="cls-1" d="M582.4,128.92c-18.41,36.47,19.09,56.34,38.94,20.64C639.74,113.09,602.25,93.22,582.4,128.92Z"/><path class="cls-1" d="M606.09,145.43l5.28,36.43c1.59,13.6-19,15.09-19.35,1.38l0-36.81C592,137.83,604.92,137,606.09,145.43Z"/><path class="cls-2" d="M596.82,104.89c-5.34,1.09-10.12,5.17-12.72,9.89-5.34,9.16,8.42,14.44,9.55,23.86,2.38,6.83-.6,28.8,9.84,27.74,22.1-1.11,41.51-43.64,16.47-51.52,0,0-3.35-14.57-23.14-10Z"/><path class="cls-3" d="M675,218.82c-61-16.36-102.72,26.82-160.39,22.34-43.71-8.1-54.12-50.95-55.2-90.27-.81-29.39,2.53-59.33-4.52-87.88C444,19.13,405.31-1.93,362.07.14,307.62,2.75,268.55,34.89,234.83,75c-31.05,36.89-65.71,65.53-105.86,91.5-38.62,25-77.83,54-103.45,92.93-21.21,32.23-38,85.26-13,120,11.54,16,24.82,18.71,43.4,20,24.33,1.7,48.67,3.91,72.7,8.24A421.37,421.37,0,0,1,295,477.37c52.3,36.67,91.91,87.38,153.25,111,54.35,20.88,114.16,30.52,172.21,24.32,57.71-6.16,110.73-26.59,154.42-64.89C819.17,508.94,826.08,427.2,814,373.13,798.8,305.06,745.77,234.54,675,218.82Z"/><path class="cls-3" d="M473.9,152.64c-9.12,8.15,2.49,32,3,33,9.91,19.88,32.87,36.58,41.39,31.19,10.27-6.48,4.49-48.1-19.19-61.79C492,151,479.84,147.33,473.9,152.64Z"/><path class="cls-1" d="M488.79,380.07c-5.15,4.43-9.62,20-10.14,23.94s4.72,15.15,7.4,15.23,2.31-13.41,3.62-17.27a20.44,20.44,0,0,1,2.45-5.33c0,.16-2.65,10.94.27,10.26,1.25-.38,3.41-8.56,3.48-11.11C496.19,389.16,500.27,378.22,488.79,380.07Z"/><path class="cls-4" d="M562.33,595.57a2.24,2.24,0,0,1,1.13,1.3c1.88,4.15,6.54,12.27,3.73,16.84-1.07,2.85-8.89,5-14.4,3.92S530,616,529,613.71s15.7-14.53,16.89-15.82c3-3.29,9.71-.36,13.72-1.94A4.19,4.19,0,0,1,562.33,595.57Z"/><path class="cls-4" d="M521.11,595.57a2.27,2.27,0,0,1,1.13,1.3c1.87,4.15,6.54,12.27,3.73,16.84-1.07,2.85-8.89,5-14.4,3.92s-22.76-1.6-23.82-3.92,15.7-14.53,16.89-15.82c3-3.29,9.71-.36,13.72-1.94A4.19,4.19,0,0,1,521.11,595.57Z"/><path class="cls-5" d="M611.35,375.8C582.63,450,553.28,524.34,522,597.5c-3.25,7.6-15.14,4.1-13.66-4.07,6.65-39.5,14.47-78.6,22.61-117.59,8.19-39.37,17.38-78.15,27.8-116.91C569.83,322.48,623.57,339.6,611.35,375.8Z"/><path class="cls-6" d="M572.26,376.41c-7.56,17.49-14.76,35.5-21.15,53.39-6.89,21.16-15.18,41.86-13.9,64.3,2,23.58,8.7,47,15.51,69.83,2.79,9.48,6,19,9.11,28.28a7.17,7.17,0,0,1-12.7,6.47,455.65,455.65,0,0,1-30.74-53.38c-11.92-24.63-22.91-52.23-20.61-80.38,2.28-37.3,11.57-73.26,23-108.57C534.23,321,586.31,341.21,572.26,376.41Z"/><path class="cls-7" d="M640.33,207C647.74,227,660.6,295,653.76,314c-6.24,13.32-25.25,14.17-37.54,16.24a259.39,259.39,0,0,1-43.86,1.35c-8.11-.42-9.24-12.31-1.44-14.3,13.84-3.72,27.73-6.61,41.08-10.06,6.53-1.77,14.84-3.6,20.25-6.72a8.56,8.56,0,0,0-3,4.48c0-16.16-3.26-33.13-5.35-49.42-1.6-11-4.28-29-6.06-39.67C612.28,200.86,634.07,192.24,640.33,207Z"/><path class="cls-8" d="M545.84,206.42c12.9-26,60-37.29,86-12.62,19.13,19.08,10.85,52.55,8,75-4,32.38-11.84,64.2-20.72,95.57-3,11.43-6.87,22.72-21.77,28.13-23.34,6.75-51.24-.61-71-13.13-17-11.31-13.88-24.15-12.46-40.75C514.47,331.25,545.84,206.42,545.84,206.42Z"/><path class="cls-7" d="M572.1,192.2c-5.92-6.53-11.4-3-16.74,2.05-20.16,19.54-22.54,56.55-30.83,81.25-8.37,27.77-21.08,53.9-31.36,81-3.1,7-12.06,28.74.35,30.47,27-5.84,50.93-80.75,62-105.48,5.72-14.09,11-28.39,15.52-43C575.71,224.11,584.93,205,572.1,192.2Z"/><path class="cls-3" d="M126.41,445.6c-2.5,1-29.45,12.15-28.32,24.51,1.73,19,47.07,3.5,124.71,40.24,61,28.88,82.1,65.23,87.06,60.39C322,528.87,218.23,406.54,126.41,445.6Z"/><path class="cls-9" d="M749.79,565.44a68.8,68.8,0,0,1-1.18,12.7H641.51A68.8,68.8,0,0,1,642.3,549H747.8A68.1,68.1,0,0,1,749.79,565.44Z"/><rect class="cls-4" x="110.89" y="372.8" width="111.29" height="15.18"/><polygon class="cls-4" points="67.12 624.86 72.88 626.44 128.53 382.81 122.77 381.23 67.12 624.86"/><polygon class="cls-4" points="260.2 626.44 265.95 624.85 210.32 383.2 204.56 384.79 260.2 626.44"/><rect class="cls-4" x="277.86" y="372.8" width="111.29" height="15.18"/><polygon class="cls-4" points="234.09 624.86 239.84 626.44 295.5 382.81 289.74 381.23 234.09 624.86"/><polygon class="cls-4" points="427.16 626.44 432.92 624.85 377.28 383.2 371.53 384.79 427.16 626.44"/><path class="cls-4" d="M383.78,565.82s3.56,1.6,5.16,7.46,12,25.91,9.06,26.84c-5,1.6-16.17-6.75-19.73-11s-8.71-13.69-9.07-18.13C368.65,564.23,382.19,558.74,383.78,565.82Z"/><path class="cls-4" d="M373.34,531.35c-5-1.27-11.81,1.78-12.84,4.49s4.16,17.57,6.61,22.93,5.89,11.55,9.27,10.31.36-15.09,1-18.14-.1-12.39-.65-15.59A5.1,5.1,0,0,0,373.34,531.35Z"/><path class="cls-8" d="M356.44,350.16c37,8.4,82.78,42.52,103.46,74.17,10.35,15.15,8.05,38.39-1,53.66-16.37,28.57-48.66,45.28-73.84,61.9-9.45,6.1-19.79-6.63-11.92-14.6,7.37-7.42,15-14,22.13-20.89,14.34-14.37,40.47-36.09,34.28-57.51,0,.08,0,.29,0,.34-16.33-21.3-55.64-46.68-81.78-52.93C318.64,388,327,345,356.44,350.16Z"/><path class="cls-7" d="M362.48,381.48c19.16,17,37,36.13,49.41,58.83a65.9,65.9,0,0,1,8.43,30.55c.73,17.39-3.29,35.16-8.5,51.44a263.3,263.3,0,0,1-19.16,44.41,9.07,9.07,0,0,1-11.76,4,8.84,8.84,0,0,1-4.82-9.7c4.78-25,13.44-69.6,3.63-93h0a43.34,43.34,0,0,0-3.95-5.93c-12.25-15.82-29.32-30.38-44.54-43.88C307.29,397,337.66,361.23,362.48,381.48Z"/><path class="cls-6" d="M359.17,246.11c9.13-19.44,25.39-54.48,34.52-73.47,7.19-16.81,11.38-34.94,15.86-53.25,3.51-14.88,6.59-30,9.34-45,1.79-9.78,16.39-8,15.8,1.93-3.17,35.74-4.94,71.16-14.51,106.25-8.37,25.15-17.21,52.27-25,77.54C386.32,285.92,348.34,271.32,359.17,246.11Z"/><path class="cls-6" d="M364.49,223.5a4.17,4.17,0,0,1,1.32,0,7.86,7.86,0,0,1,1,.27c.68.17,1.36.33,2,.53,21.42,6.22,30.94,30.37,34.18,50.56,2.82,17.58,1.83,35.52,2.43,53.32s2.45,36.75,11.33,52.19c-16.34-5.4-34-5.45-50,1.05s-29.18,20.12-37.1,35.4c-8.92-5.75-14.6-17.13-16.94-27.48s-1.94-21.1-1.44-31.7c1.24-26.25,3-52.54,1.72-78.78-.48-9.63-1.37-19.42.82-28.81,4-17,17.58-24.12,34-25.39,1.51-.12,3-.2,4.52-.27l2.24-.09a5.85,5.85,0,0,0,1.1-.06,6.86,6.86,0,0,1,.78-.2,5.86,5.86,0,0,1,.84,0c1.08,0,2.17.14,3.26.15.71,0,1.42,0,2.12-.07a3.52,3.52,0,0,0,.92-.12,8.37,8.37,0,0,0,.84-.44Z"/><path class="cls-6" d="M312.79,249c-8.59-51.36-16-104-18.76-155.94l-1.11-22.52a8.62,8.62,0,0,1,17-2.51l10.73,43.37c10.63,43.05,25.14,86.19,34.8,129.48C361.19,269.31,317.88,277.64,312.79,249Z"/><path class="cls-1" d="M388.29,184c-.1,15.79-4.72,35.17-21,28.46-10.61-4.36-20.76-12.94-20.66-28.73C347.61,146,387.76,146.22,388.29,184Z"/><path class="cls-1" d="M372.51,193.5l-3,33.09c-1.52,12.84-20.75,9.58-17.92-3.06l8.16-32.2C361.68,183.72,373.26,185.75,372.51,193.5Z"/><path class="cls-4" d="M357.21,155.09a8.56,8.56,0,0,1,5.27-5.58c6.8-2.49,12.94,2,18.54,5.29,2.54,1.27,5.53,2.37,7.09,4.91,3.49,7-6.71,9.12-11.63,10-3.8.79-15.22-.3-17.21,3.6-2.36,8.3-1.2,17.3-1.74,25.85-.07,1.12,0,6.16-1.39,6.57-.44.13-2.87-1.56-3.24-1.83-11.49-8.24-17.29-22.17-12.84-35.93C341.84,161.1,349.17,150,357.21,155.09Z"/><path class="cls-1" d="M291.2,45.86a11,11,0,0,1,9.92-5.92c5.81,0,6.84,7.28,6.67,12.58s-1,16.16-7.67,15.23c-5.17-.73-9-8.06-10-13.42A12.81,12.81,0,0,1,291.2,45.86Z"/><path class="cls-1" d="M307.64,48.36c6.26,3.27.75,13.92-3,17.55,0,0-.82-14.66-.82-14.66Z"/><path class="cls-1" d="M437.61,51.38a11.22,11.22,0,0,0-10-5.67c-5.87,0-6.91,7-6.73,12s1,15.48,7.74,14.59c5.22-.7,9-7.72,10.09-12.86A11.76,11.76,0,0,0,437.61,51.38Z"/><path class="cls-1" d="M421,53.77c-6.31,3-.76,13.4,3,16.82,0,0,.83-14,.83-14Z"/><rect class="cls-1" x="203.44" y="525.79" width="11.91" height="33.74" transform="translate(-10.64 4.22) rotate(-1.13)"/><rect class="cls-1" x="234.76" y="521.13" width="11.2" height="33.74" transform="translate(-6.08 2.76) rotate(-0.65)"/><path class="cls-1" d="M189.53,226.2a314.33,314.33,0,0,0,31.2-28.33c5.45-6.31,11.93-11.29,12.28-19.82,1.08-14-.09-28.72-.66-43-.4-5.11,7.16-6.45,8.53-1.52,4.31,17.14,13.62,48,2.64,63.44-12.08,17.49-27.07,31.71-44.29,44C189.5,246.92,180.18,232.77,189.53,226.2Z"/><path class="cls-4" d="M169.18,167.54c-7-10.43-17.32-3.44-21.7,5.45-5.69,11-.2,19.39-3.28,40.92-2.28,15.93-6.24,18-5.19,29.64,3,28.94,17.05,31.55,27.94,2.69,4.8-14-.76-17.78,2.06-41.19C171.22,186.18,176.2,179.11,169.18,167.54Z"/><path class="cls-6" d="M185.32,263.68c-32.47-34.22,10.69-46.38,33.58-64,10.58,4.13,22.26,21.06,22.51,29.91Z"/><path class="cls-6" d="M162.79,511.24c-.32,9.06-.67,18-.89,27.16l129.84-12.61c-10.29-43.53-18.29-89-39.7-129.14-12.14-20.06-46-70-45.92-82.14,3.86-29.05,13-79.93-25.7-88.21-26.89-3.2-46.47,17.37-51.94,42.33C122.93,295.05,141,349.85,141,349.85a534.43,534.43,0,0,1,19.86,93.09C164.64,465.34,163.57,488.09,162.79,511.24Z"/><path class="cls-1" d="M175.77,204.43,180.7,227c1.82,9.73-12.69,11.47-13.33,1.64l-.83-23.05C166.31,199.84,174.62,198.9,175.77,204.43Z"/><path class="cls-4" d="M207.21,550.86c3.2,1.65,6.48.28,8.3-.08,4.54,4,27.56,18.76,25.55,21.06-3.43,3.94-17.34,2.58-22.59.77-9.7-3.82-26.58-12.68-14.91-23.7A23.84,23.84,0,0,0,207.21,550.86Z"/><path class="cls-4" d="M238,547.63c2.84,1.82,6.38.78,8.12.64,3.74,4.15,23.57,20,21.25,21.89-4,3.3-17.2.72-22-1.45-9-4.51-23.48-14.36-10.51-23.23A17.77,17.77,0,0,0,238,547.63Z"/><path class="cls-1" d="M191.26,189.92c2.86,36.18-31.59,37.07-36,4.28C150.88,161.21,188.48,154.78,191.26,189.92Z"/><path class="cls-10" d="M175.49,174.52c-4.25,18.87-11.72,15.49-15.56,33.7a37.47,37.47,0,0,1-5.25-4.72c-6.13-7.37-6.67-18.51-3.22-26.89,3.23-6.17,10.9-12.77,18.64-11.76,3.08.41,3.87,1.22,3.87,1.22,4.17-1.25,9,1,12.07,3.72,5.42,4.68,5.13,13.59,5.22,20.13C191.26,189.92,184.32,175.37,175.49,174.52Z"/><path class="cls-1" d="M159.09,255.28c-5.14,8.43-9.41,17.79-13.52,26.83-4.27,10.43-10,22.38-10.73,33.31,1.84,6.23,19,9.62,26.19,10.9,5.09.86,10.42,1.5,15.54,1.93a4.45,4.45,0,0,1,.5,8.85c-22.08,3.6-66.13,3.83-60.86-29.54,3.54-23.32,11.69-44.85,22.89-65.4l1,1.05C149,228.75,167.52,241.91,159.09,255.28Z"/><path class="cls-6" d="M117.23,272.42c7.57,10.19,23.87,16.76,33.11,19.75,2.25-7.19,9.23-29.32,11.61-36.87a20.06,20.06,0,0,0-4-19.22c-2.4-2.75-1.51-5.79-4.76-4.11C138.14,238.64,126.06,258.82,117.23,272.42Z"/><path class="cls-1" d="M243.46,113.72a9.73,9.73,0,0,0-9.08-5c-5.15.3-5.71,7-5.3,11.86s1.67,14.79,7.53,13.62C243.29,132.42,247.15,119.74,243.46,113.72Z"/><path class="cls-1" d="M229,116.77c-5.4,3.36,0,12.77,3.48,16,0,0,0-13.49,0-13.49Z"/><polygon class="cls-4" points="688.55 626.72 694.57 625.14 621.62 350.8 636.73 350.8 636.73 335.11 100.99 335.11 100.99 350.8 112.61 350.8 39.66 625.14 45.67 626.72 119.05 350.8 615.18 350.8 688.55 626.72"/><rect class="cls-11" x="136.73" y="330.78" width="117.4" height="4.3"/><polygon class="cls-12" points="170.03 335.08 253.72 335.08 257.73 270.15 173.47 270.15 170.03 335.08"/><rect class="cls-11" x="341.72" y="330.78" width="117.4" height="4.3"/><polygon class="cls-12" points="375.02 335.08 458.71 335.08 462.72 270.15 378.46 270.15 375.02 335.08"/><path class="cls-11" d="M748.31,344.43c-32.75,68-26.7,94.75-46.79,175.17h6.56c42.36-40.41,5-47.31,24.13-80.06,27.09-44.61.89-43.78,11.42-66.29,6-16,15.84-30.7,21.36-47,.94-3.94,5.22-9.33,2.32-12.95C763,320.09,756,329.84,748.31,344.43Z"/><path class="cls-13" d="M703,513.59c21.76-85.49,20.81-131.08,64.33-200.28,0,0-.65-1.17-4,0-9.08,3.2-15.68,9.52-21.49,19.71-7.86,13.85-7.27,31.5-15.85,45-9.26,14.62-21,29.11-21.7,48.15,5.15,40.54-20.39,40.22-10.48,77.46.59,2.19,1.6,10.11,2.91,15.94h4.79Q702.21,516.81,703,513.59Z"/><path class="cls-11" d="M687.45,512c1.66-139.22,25-211.37-27.55-331.42-6.42,3.62-1.53,14.67-1.43,20.73,1.38,9.13,3,18.24,4.84,27.27,4.73,21.6,13.59,43.58,14.08,65.77-1,8.51-7.23,14.74-11.57,21.75-18.73,30.45,3.08,61.05,6.13,91.56-.43,22.66-21.59,37.86-19,61.58,2,18.36,13.37,36.2,23.26,50.33h11.25C687.44,517.21,687.45,514.69,687.45,512Z"/><path class="cls-12" d="M691.94,353.2c.82,51-4.92,84.13-4.49,166.4H698c4.07-7.78,8-16.65,9.67-19.3,28.23-43-.08-59.49,6.7-98.31,2.24-8.28,5.85-16,7.81-24.4,6.88-29.43-7.53-56.11-17.52-82-9.26-24-.75-50.82-8.63-75-5.82-17.83-15.94-31.24-30.25-39.49a6.34,6.34,0,0,0-5.89-.4C679.84,227.83,694.09,303.92,691.94,353.2Z"/><path class="cls-6" d="M731.4,519.6H658.7c-35.91,34.6-16.14,107.48,36.35,108C747.16,627.25,767.53,554.42,731.4,519.6Z"/></g></g></svg>