<?xml version="1.0" encoding="utf-8"?>
<!-- Generator: Adobe Illustrator 24.2.3, SVG Export Plug-In . SVG Version: 6.00 Build 0)  -->
<svg version="1.1" id="Layer_1" xmlns="http://www.w3.org/2000/svg" xmlns:xlink="http://www.w3.org/1999/xlink" x="0px" y="0px"
	 viewBox="0 0 440.7 249.8" style="enable-background:new 0 0 440.7 249.8;" xml:space="preserve">
<style type="text/css">
	.st0{fill:#135189;}
	.st1{fill:#FBB03B;}
	.st2{fill:none;stroke:#4CA5A2;stroke-width:1.19;stroke-linecap:round;stroke-miterlimit:10;}
	.st3{fill:#086BD1;}
	.st4{fill:none;stroke:#C18B1E;stroke-width:1.23;stroke-linecap:round;stroke-miterlimit:10;}
	.st5{fill:none;stroke:#2C7C78;stroke-width:1.23;stroke-linecap:round;stroke-miterlimit:10;}
	.st6{fill:none;stroke:#05457F;stroke-width:1.23;stroke-linecap:round;stroke-miterlimit:10;}
	.st7{fill:none;stroke:#4CA5A2;stroke-width:1.23;stroke-linecap:round;stroke-miterlimit:10;}
	.st8{fill:#38ACE5;}
	.st9{fill:none;stroke:#1A7EAA;stroke-width:1.23;stroke-linecap:round;stroke-miterlimit:10;}
	.st10{fill:none;stroke:#05457F;stroke-width:1.19;stroke-linecap:round;stroke-miterlimit:10;}
	.st11{fill:none;stroke:#1A7EAA;stroke-width:1.19;stroke-linecap:round;stroke-miterlimit:10;}
	.st12{fill:#9BCFEA;}
	.st13{fill:#8BBDDB;}
	.st14{fill:#3793B7;}
	.st15{fill:#1A87E8;}
	.st16{fill:#156DAF;}
	.st17{fill:#87CBF4;}
	.st18{fill:#53B5F2;}
	.st19{fill:#D68536;}
	.st20{fill:#B72A46;}
	.st21{fill:#F7A692;}
	.st22{fill:#F2A668;}
	.st23{fill:#EF6E4B;}
	.st24{fill:#FF8B66;}
	.st25{fill:#F9B3A0;}
	.st26{fill:#6097B2;}
	.st27{fill:#BC8861;}
	.st28{fill:#FFB878;}
</style>
<g id="Layer_2_1_">
	<g id="OBJECTS">
		<path class="st0" d="M10.2,231.6c0,0,2.4-5.2-1.1-8s-10.2-6.8-8.4-8.6s3.5,2.4,6.1,1.3s1.6-15.2-1.5-19.2s-5.7-6.3-3.4-8.9
			s4.3,5.5,7.2,3.8s-5.2-13.2-3.3-19s7-5,6.5-0.6s-0.7,13.6,1.9,17s9.5-8.4,9.5-2s-6.3,11.3-6.6,20s-1.3,11,1.9,9s6.3,0.5,3.4,3.4
			s-6.1,7.4-4.9,10.9L10.2,231.6z"/>
		<path class="st1" d="M11.2,231.1c1.9-5.2,0.4-11.1-3.8-14.8c-7.2-6.4-9.1-15.1-6-16.5s3.4,5.4,5.7,7.7s4.4-4.8,3.6-8.5
			s-6.5-9.4-2.9-13.5s3.6,4.4,5.6,6.7s5.7-6.1,4.9-10.2s-1.8-12.9,2.3-11.1s4.3,11.1,0.7,16.3s-6.2,9.5-5.4,12.8s2.4,3.1,4.7-0.4
			s5.2-4.3,5.2,0.4s-12.6,16.6-9.8,31.2L11.2,231.1z"/>
		<path class="st2" d="M13.7,229.9c0,0,1.9-10,0.3-18.3s-1.4-14.4-0.2-16.4"/>
		<polygon class="st0" points="22.8,248.6 24.3,232.2 3.3,232.2 4.9,248.6 		"/>
		<polygon class="st3" points="25.4,233.2 25.8,229.1 1.9,229.1 2.3,233.2 		"/>
		<path class="st1" d="M381.1,225.8c20.2,4.4,41.5-9.1,41.8-17.2s-19.3,8.7-22.2,0.5s21.3-11.5,21.7-20.2s-21.4,11.8-23,6.3
			s19.3-18.7,16.1-25s-15.8,16.1-19.4,13s11-23.9,2.2-25.5s-7.3,17.6-10.3,21.5s-2.9-18.5-8.1-16.8s3.7,23.3,0.2,26.2
			s-8.8-16.3-14.8-11.8s9.4,16.6,7.9,22.4s-11.4-11.3-16.8-6.8S364.2,222.1,381.1,225.8z"/>
		<path class="st4" d="M396.1,163.9c0,0-9.1,36.7-20.3,70.2"/>
		<path class="st4" d="M414.3,192.9c0,0-25,12.4-33.2,23.6c0,0,0.3-20.1-12.5-33.8"/>
		<path class="st4" d="M408.4,176.9c0,0-18.7,17.8-24.5,31.1c0,0,1.5-24.1-2.4-36.8"/>
		<path class="st5" d="M417.9,211c0,0-33.9,5.6-38.1,11.2c0,0-9.4-21-21-26.6"/>
		<path class="st3" d="M391.4,211.4c10.3-7.8,36.8-22,47.2-12.1c12,11.4-31.9,15.5-31.9,15.5s28.7-0.3,29.1,12.8s-32.3-3.5-32.3-3.5
			s17.5,8.3,11.5,13.2s-30-16-36.2-11.5S384.4,216.7,391.4,211.4z"/>
		<path class="st6" d="M380.7,223.3c10.5-8.8,22.7-15.3,35.8-19.1c4.8-1.3,9.7-2.2,14.7-2.6"/>
		<path class="st7" d="M380.7,223.6c15.5-6.2,33.4-5.7,47.9,2"/>
		<path class="st7" d="M380.8,223.8c10-0.4,19.9,3,28.2,8.4"/>
		<path class="st8" d="M376.8,230c1.8-5.3,8-9.1,12.8-11.1c11.8-4.8,30.8-8.9,39.8,3.3c2.9,4,3.7,9.1,2.3,13.7
			c-2.6,8.4-12,12.2-20,13.4c-10.7,1.6-25.8-0.7-32.9-9.8c-1.3-1.6-2.1-3.4-2.4-5.4C376.1,232.8,376.3,231.3,376.8,230z"/>
		<path class="st9" d="M378.4,233.1c0,0,32.8-8.9,50.8-2.8"/>
		<path class="st9" d="M421.8,239.1c0,0-8.5-10.3-13.3-10.7c0,0,6.8-6.7,12-8.2"/>
		<path class="st9" d="M408.3,216.4c0,0-9.6,6.8-9.9,12.8c0,0,8.6,8.5,11.8,15.2"/>
		<path class="st9" d="M391.5,220.1c0,0-3.7,7.3-3.1,11c3.2,4.4,6,9.1,8.3,14.1"/>
		<path class="st3" d="M221.3,212.1c-3.1-12.2-14.4-38.9-28.2-37.8c-16,1.3,14.6,31,14.6,31s-21.5-17.7-29.7-8.1s26.5,17,26.5,17
			s-18.3-4.4-16.7,3s32.3,6.2,34.3,13.4S223.4,220.4,221.3,212.1z"/>
		<path class="st10" d="M222.1,227.6c-2.5-13-7.8-25.3-15.4-36.1c-2.8-3.9-6-7.6-9.5-10.9"/>
		<path class="st10" d="M221.9,227.9c-7.9-14.1-21.8-24.6-37.3-27.6"/>
		<path class="st2" d="M221.7,228c-7.3-6.4-16.8-9.8-26.4-10.8"/>
		<path class="st8" d="M226.7,230.6c-1.7-5.1-7.7-8.8-12.4-10.7c-11.4-4.7-29.9-8.6-38.5,3.2c-2.8,3.9-3.6,8.8-2.2,13.3
			c2.5,8.1,11.6,11.9,19.4,13c10.4,1.5,25-0.7,31.9-9.5c1.2-1.5,2-3.3,2.3-5.2C227.3,233.3,227.2,231.9,226.7,230.6z"/>
		<path class="st11" d="M225.2,233.6c0,0-31.8-8.6-49.2-2.7"/>
		<path class="st11" d="M183.1,239.5c0,0,8.2-9.9,12.9-10.4c0,0-6.6-6.5-11.6-8"/>
		<path class="st11" d="M196.1,217.4c0,0,9.3,6.6,9.5,12.4c0,0-8.3,8.2-11.5,14.8"/>
		<path class="st11" d="M212.5,221c0,0,3.6,7.1,3,10.6c-3.1,4.3-5.8,8.8-8,13.6"/>
		<polygon class="st12" points="78.4,177.8 50.7,184.2 43,151 55,148.2 70.7,144.6 72.6,152.8 		"/>
		<polygon class="st13" points="72.6,152.8 55.3,153.6 55,148.2 70.7,144.6 		"/>
		<polygon class="st8" points="242.2,43.9 219.1,57.2 182.6,78.2 157.3,34.4 216.8,0 236.4,33.9 		"/>
		<polygon class="st14" points="242.2,43.9 219.1,57.2 216.6,36.3 236.4,33.9 		"/>
		<polygon class="st15" points="323.4,96.6 257.2,104.5 228.3,107.9 220.3,40.8 315.4,29.5 323.1,94.6 		"/>
		<polygon class="st16" points="323.4,96.6 257.2,104.5 268.2,77.1 323.1,94.6 		"/>
		
			<rect x="56.5" y="106.3" transform="matrix(0.9988 -4.815246e-02 4.815246e-02 0.9988 -6.0757 3.7404)" class="st17" width="36.2" height="43.4"/>
		
			<rect x="86.5" y="43.1" transform="matrix(0.5769 -0.8168 0.8168 0.5769 -5.1101 122.9386)" class="st18" width="59.2" height="46.6"/>
		<path class="st19" d="M292.9,137.7L292.9,137.7c-0.3-2-2.1-3.5-4.1-3.4h-20.2c-2.2,0.1-4.1,1.4-4.9,3.4l0,0
			c-0.8,2-2.7,3.4-4.9,3.4h-13c-2.7,0.1-4.9,2.1-5.3,4.7L229,243.9c-0.3,2.2,1.2,4.3,3.4,4.6c0.2,0,0.5,0.1,0.7,0h143.4
			c2.7-0.1,4.9-2,5.3-4.7l11.5-98.1c0.3-2.2-1.2-4.3-3.4-4.6c-0.2,0-0.5-0.1-0.7,0H297C295,141.1,293.2,139.7,292.9,137.7z"/>
		
			<rect x="269.8" y="81.9" transform="matrix(0.3108 -0.9505 0.9505 0.3108 80.5895 392.6251)" class="st3" width="82.4" height="117.8"/>
		<path class="st1" d="M214.2,148.1c-2-0.2-3.8,1.4-4,3.4c0,0.3,0,0.7,0.1,1l16.9,91.7c0.6,2.6,2.9,4.4,5.5,4.4h143.4
			c2,0.2,3.8-1.4,3.9-3.4c0-0.3,0-0.7-0.1-1l-16.9-91.7c-0.6-2.6-2.9-4.4-5.5-4.4H214.2z"/>
		<path class="st20" d="M114,217.4c0,0-0.5,7.1,13.7,9.6s11.3-58.2,11.3-58.2l-18.3,7.5L114,217.4z"/>
		<path class="st21" d="M121.8,159.9c-7.1,2.2-9.3,9.7-14.6,27.5c0,0-17,10.5-21.4,10l1.5,3.3c0,0,17.6-0.6,23.3-3.5
			c4.5-2.3,10-13.7,12.3-19.6S121.8,159.9,121.8,159.9z"/>
		<path class="st19" d="M119,160.4c-4.5,1.2-12.3,21.6-12.3,21.6s3.1,3.8,9.7,4.3S119,160.4,119,160.4z"/>
		<path class="st0" d="M116.7,218.2c0,0-50.7-10.2-54.9,2.3s18.4,25.5,56,25.5s33.1-29,33.1-29L116.7,218.2z"/>
		<path class="st3" d="M114.8,225.5c3.6-3,39.3-7.7,39.3-7.7s1,19.9-8.6,25.5s-20.6,4.9-28.3,3.2C101.9,243,111.2,228.6,114.8,225.5
			z"/>
		<path class="st22" d="M154,219.8c1.1-12.4,5.9-47.8,5.5-49.6c-1.1-5.5-9.6-12.9-21-13.5c-1.2-0.1-2.4-0.1-3.5-0.1
			c-9.1,0.1-14,2.7-17.5,7.4c-1,1.4-2.6,6-3,12.3c-0.8,14-0.1,28,2.1,41.8C123.3,224.8,154,219.8,154,219.8z"/>
		<path class="st1" d="M127.1,166.8c-1.7,8.5-8.7,46.6-13.1,50.6c0,0-0.6-19.1-0.5-33.1s3.2-22.2,5.5-23.8s10.3-3.4,10.3-3.4
			L127.1,166.8z"/>
		<path class="st23" d="M77.4,199v1.3h9l1.2-2.1c-2.5-0.7-5.2-0.7-7.8-0.1c-0.7,0.2-1.3,0.5-1.8,0.9C77.8,198.9,77.6,198.9,77.4,199
			z"/>
		<path class="st24" d="M88.6,199.4c-0.6,0.9-1.6,1.4-2.6,1.3c-0.9-0.1-1.7-0.1-2.6,0c0,0-0.3-0.5,0.5-0.7s2.2-0.9,2.3-1.5l-2.4-0.4
			c-0.6,0-1.2,0.2-1.7,0.4c-0.5,0.3-0.7,1.2-1.3,1.7s-0.9,0.3-0.9,0.3c0.2-0.7,0.4-1.3,0.7-1.9c0.2-0.2,0.4-0.3,0.6-0.5
			c-0.5,0-1,0.3-1.3,0.7c-0.2,0.4-0.4,0.9-0.5,1.3c-0.1,0.2-0.5,0.6-0.8,0.5c0,0,0.3-1.6,0.5-2.2c-0.2,0.7-0.4,1.3-0.7,2
			c-0.3,0.3-0.5,0-0.4-1.6c-0.2,0.4-0.3,0.9-0.3,1.3c0,0-0.5,0.3-0.5-0.2s-0.1-1.5,0.9-1.5c0,0,0.6-1.2,1.5-0.8
			c0.7-0.4,1.4-0.7,2.1-0.9c0.6-0.1,1.1-0.1,1.7,0C83.3,196.9,90.3,196.7,88.6,199.4z"/>
		<path class="st25" d="M109.3,199c-0.2,1.6-3.3,1.4-3.3,1.4s-1.8,0.3-2.8,0.3c0,0,0.1,1.2-0.4,1.2s-0.8-1.9-0.8-1.9s-1,2-1.3,1.9
			s-0.3-2.2-0.3-2.2s-1.1,0-1.2,0.3c-0.1,0.4-0.3,0.8-0.5,1.2c-0.2,0.5-0.5,0.9-0.7,0.7c-0.4-0.3-0.2-2.7-0.2-2.7
			c-0.3,0-0.5,0-0.8,0.1c-0.2,0.1-0.8,1.8-1.5,0.8c0.1-1.1,0.7-2.1,1.5-2.7c1.5-0.8,3.1-1.2,4.8-1.4c1.9-0.1,3.8,0.1,5.6,0.6
			C107.9,196.9,109.4,197.4,109.3,199z"/>
		<path class="st21" d="M102,200.1c0,0-0.2-1.2,0.4-1.4c0.6-0.2,1.1-0.3,1.7-0.4c-0.7,0-1.4,0.1-2.1,0.3c-0.8,0.3-0.5,2.6-0.5,2.6
			L102,200.1z"/>
		<path class="st21" d="M101.7,197.8c-0.4,0.1-0.7,0.3-1,0.6c-0.2,0.5-0.3,1-0.3,1.5c0,0-1.1,0-1.2,0.3c-0.1,0.4-0.3,0.8-0.5,1.2
			c0-0.9,0.3-1.8,0.7-2.6C99.9,197.9,101.5,197.8,101.7,197.8z"/>
		<path class="st21" d="M99.2,197.7c0,0-1.3,0.8-1.4,1.6c-0.3,0-0.5,0-0.8,0.1C97.3,198.4,98.2,197.8,99.2,197.7z"/>
		<path class="st21" d="M109.3,199c-0.2,1.6-3.3,1.4-3.3,1.4s-1.8,0.3-2.8,0.3c-0.1-0.4,0.2-0.6,0.2-1c0,0,1.3,0,1.6-0.2
			c0.6,0.1,1.2,0.1,1.8-0.1C107.4,199,108.4,200.3,109.3,199z"/>
		<path class="st13" d="M79.8,236.7c0,0-14,0-17.4-0.3s-3.9,5.6,2.2,8.1s11.5,4.7,18.7,1L79.8,236.7z"/>
		<path class="st26" d="M105.6,244.1c0,0-0.4-6.8,5.9-7.9c0,0,1.7-5,9.8,2c4.5,3.9,12.3,6.8,9,9.6S114.4,245.4,105.6,244.1z"/>
		<path class="st3" d="M79.8,236.7c0,0,45.2-17.4,60.4-18.9s17.4,8.6,5.4,16.4s-63.8,11.5-63.8,11.5S76.3,241.8,79.8,236.7z"/>
		<path class="st19" d="M143.1,155c-4.2-2-13.3-0.7-15.5,1.2c-1.7,1.6-3.3,3.5-4.5,5.5l3.2-2.9l0.9,8.1c0,0,0.7-11.8,17.2-7.5
			L143.1,155z"/>
		<path class="st25" d="M125.2,145.4c1.5,4.4,4.4,6.6,7.3,7.3c4.5,1.1,9.3-1.1,10-4.1c0.4-2.1,0.4-4.3,0-6.4l-0.1-0.6
			c-0.1-0.6-0.2-1.3-0.3-1.9c-0.9-4.2-2.8-8.2-5.5-8.5C127.4,130.2,121.3,134.3,125.2,145.4z"/>
		<path class="st0" d="M128.5,136.6c1.6,4.7-1.3,9.3-1.3,9.3l1.7,3.9l0.2,1.4c-1.5-1.1-3-2.4-4.3-3.7c-3.8-4.8-4.4-10.3-3-10.7
			C121.8,136.8,128,135,128.5,136.6z"/>
		<path class="st25" d="M127.4,144.5c0,0-2.4-1.7-3.8,0.1s2.5,5,4.3,4.4C129.8,148.3,127.4,144.5,127.4,144.5z"/>
		<path class="st0" d="M128.4,136.8c-0.2-1.1,0.3-2.3,1.2-3c1.6-0.9,6-0.6,6-0.6l2.9-1.4c0,0,2.2-6.1-4.8-4.8l1.2,0.9
			c0,0-1.4-1.5-7.8,1.4c-6.4,2.9-7.2,6.5-5.2,9S128.4,136.8,128.4,136.8z"/>
		<path class="st21" d="M139.6,151.9c0,0-0.1,5.6,2.1,7.8c0.1,0.1-4.6,4.3-11.4,1.8c0,0,1.3-8.1-2.7-12.6c0.6,0,1.1-0.6,1.1-1.2
			C130.9,151.6,135.5,153.4,139.6,151.9z"/>
		<path class="st1" d="M138.3,160c0.6,2.4,0.3,5-0.7,7.3c0,0-0.7,41,2.8,54.9c0,0,9,4.3,14.4,4.3c0,0,0.2-16.1,1.1-21.5
			s7.7-30.3,2.5-39.3s-14.1-7.4-14.1-7.4L138.3,160z"/>
		<path class="st19" d="M143.1,155c-1,2.2-2.7,3.9-4.9,5c1.2,1.4,2.1,3,2.8,4.7c0,0,5.3-3.3,6.7-6
			C147.7,158.7,145.2,155.2,143.1,155z"/>
		<path class="st25" d="M154.9,163.1c-5.4-1.2-17.3,25-15.7,30.8s6.2,8.1,9.4,3.3s9.4-18.9,10.1-24.4S154.9,163.1,154.9,163.1z"/>
		<path class="st25" d="M140.6,189c0,0,6.3,5.4,4.6,10.7c0,0-7.4,6.4-38.1,0.6v-4C107.1,196.3,121.2,194.1,140.6,189z"/>
		<path class="st19" d="M139.9,184.1c0,0,6.5-20.5,13.3-21.8s8,13.6,1.8,26.9C155,189.2,148.4,182.5,139.9,184.1z"/>
		<path class="st0" d="M79,200.9h32.6l0,0v0.8c0,0.4-0.3,0.7-0.7,0.7c0,0,0,0,0,0H79.7c-0.4,0-0.7-0.3-0.7-0.7l0,0L79,200.9
			L79,200.9z"/>
		<path class="st0" d="M65.7,200.9h32.6l0,0v0.8c0,0.4-0.3,0.7-0.7,0.7c0,0,0,0,0,0H66.4c-0.4,0-0.7-0.3-0.7-0.7l0,0L65.7,200.9
			L65.7,200.9z"/>
		<path class="st0" d="M95.5,200.9H65.7c-0.9,0-1.7-0.7-1.8-1.7l-2-22.6c-0.1-0.8,0.5-1.6,1.4-1.7c0.1,0,0.1,0,0.2,0h29.8
			c0.9,0,1.7,0.7,1.8,1.7l2,22.6c0.1,0.8-0.5,1.6-1.4,1.7C95.7,200.9,95.6,200.9,95.5,200.9z"/>
		<path class="st0" d="M94.4,200.9H64.6c-0.9,0-1.7-0.7-1.8-1.7l-2-22.6c-0.1-0.8,0.5-1.6,1.3-1.7c0.1,0,0.1,0,0.2,0h29.8
			c0.9,0,1.7,0.7,1.8,1.7l2,22.6c0.1,0.8-0.5,1.6-1.4,1.7C94.5,200.9,94.4,200.9,94.4,200.9z"/>
		<polygon class="st27" points="52.3,248.6 59.2,205.2 128.8,205.2 135.6,248.6 137.9,248.6 130.6,203 57.3,203 50.1,248.6 		"/>
		<polygon class="st22" points="30.3,248.6 37.1,205.2 106.7,205.2 113.6,248.6 115.8,248.6 108.6,203 35.3,203 28,248.6 		"/>
		<rect x="33.8" y="202.3" class="st28" width="100" height="2.9"/>
	</g>
</g>
</svg>
